<?xml version="1.0" standalone="no"?>
<!DOCTYPE svg PUBLIC "-//W3C//DTD SVG 20010904//EN"
 "http://www.w3.org/TR/2001/REC-SVG-20010904/DTD/svg10.dtd">
<svg version="1.0" xmlns="http://www.w3.org/2000/svg"
 width="16.000000pt" height="16.000000pt" viewBox="0 0 16.000000 16.000000"
 preserveAspectRatio="xMidYMid meet">
<metadata>
Created by potrace 1.11, written by Peter Selinger 2001-2013
</metadata>
<g transform="translate(0.000000,16.000000) scale(0.001778,-0.001778)"
fill="#000000" stroke="none">
<path d="M4463 8899 c-16 -15 -335 -178 -518 -264 -173 -82 -230 -108 -235
-110 -3 0 -25 -10 -50 -22 -93 -43 -143 -63 -155 -63 -8 0 -15 -3 -17 -8 -1
-4 -59 -30 -128 -57 -69 -28 -128 -54 -131 -58 -3 -5 -10 -9 -15 -9 -13 -1
-71 -20 -159 -54 -11 -4 -22 -8 -25 -9 -3 -1 -12 -4 -20 -8 -23 -9 -315 -103
-412 -132 -49 -14 -92 -24 -97 -21 -5 4 -11 1 -13 -4 -2 -6 -14 -11 -28 -12
-14 -1 -29 -5 -35 -8 -5 -4 -28 -11 -50 -15 -47 -10 -36 -7 -105 -25 -30 -8
-59 -13 -63 -12 -4 1 -16 -2 -25 -7 -9 -5 -35 -11 -57 -15 -22 -3 -51 -8 -65
-12 -14 -3 -32 -7 -40 -8 -8 -2 -28 -6 -45 -9 -69 -15 -92 -19 -121 -21 -17
-2 -36 -6 -42 -10 -6 -3 -33 -9 -59 -12 -69 -8 -98 -12 -98 -14 0 -2 -36 -10
-70 -14 -16 -2 -39 -6 -50 -9 -11 -2 -42 -8 -70 -12 -27 -4 -61 -10 -75 -12
-14 -2 -36 -6 -50 -8 -14 -1 -25 -4 -25 -5 0 -1 -13 -3 -30 -5 -16 -2 -48 -7
-70 -10 -22 -4 -50 -8 -62 -10 -12 -2 -36 -6 -55 -10 -18 -5 -46 -9 -63 -11
-26 -2 -55 -8 -90 -18 -43 -13 -42 -5 -39 -244 4 -303 11 -509 19 -522 3 -5 1
-10 -5 -10 -6 0 -9 -4 -5 -10 5 -8 11 -99 20 -330 11 -270 23 -495 26 -495 0
0 2 -31 4 -70 3 -83 12 -229 21 -338 3 -43 7 -99 9 -125 7 -99 23 -287 25
-287 1 0 3 -22 5 -50 3 -27 7 -61 10 -75 2 -14 7 -41 10 -60 3 -19 8 -46 11
-60 3 -14 8 -38 10 -55 3 -16 7 -41 11 -55 9 -36 10 -42 16 -75 3 -16 9 -43
13 -60 3 -16 6 -37 7 -45 0 -8 4 -21 10 -27 5 -7 7 -13 4 -13 -3 0 1 -28 10
-62 8 -35 17 -72 19 -83 3 -11 7 -31 10 -43 3 -13 12 -49 20 -80 8 -32 17 -64
19 -72 1 -8 11 -42 20 -75 9 -33 18 -67 19 -75 1 -9 5 -21 10 -28 4 -6 5 -12
1 -12 -3 0 -1 -8 4 -19 6 -10 13 -32 16 -50 12 -69 171 -553 209 -636 8 -16
17 -41 21 -55 4 -14 11 -29 15 -35 3 -5 15 -32 25 -60 55 -155 152 -364 244
-529 34 -60 61 -112 61 -117 0 -5 5 -9 10 -9 6 0 10 -5 10 -11 0 -6 22 -48 49
-93 84 -139 91 -150 103 -176 7 -14 15 -27 19 -30 3 -3 12 -16 19 -30 25 -48
247 -380 298 -445 4 -5 23 -32 42 -60 19 -27 38 -52 41 -55 3 -3 10 -12 15
-21 18 -32 149 -192 247 -303 112 -125 528 -536 543 -536 2 0 16 -12 31 -26
15 -15 55 -49 87 -78 33 -28 74 -64 92 -81 17 -16 67 -59 110 -95 44 -35 81
-68 84 -71 11 -15 178 -143 215 -166 22 -14 59 -38 82 -54 23 -16 46 -29 51
-29 5 0 15 -7 22 -15 7 -9 15 -13 18 -11 2 3 10 0 18 -7 26 -24 39 -32 67 -44
15 -7 27 -17 27 -23 0 -5 3 -9 8 -8 4 2 28 -12 55 -30 26 -18 47 -30 47 -26 0
3 6 2 13 -4 6 -5 49 -28 94 -51 86 -44 134 -56 162 -41 9 5 70 35 136 66 66
31 134 67 152 80 17 13 35 24 40 24 4 0 20 11 35 25 15 14 30 24 32 23 3 -2
16 6 28 17 13 10 25 18 28 18 7 -2 198 118 219 137 9 8 44 35 76 60 33 25 65
50 70 56 6 7 55 49 110 95 88 73 127 108 194 169 9 8 54 48 101 89 47 41 98
86 114 100 53 47 250 246 338 342 131 142 219 242 259 294 13 17 27 32 31 33
5 2 8 10 8 18 0 8 5 14 10 14 6 0 10 7 10 15 0 7 6 18 13 22 6 4 23 24 37 43
13 19 60 85 102 145 73 103 201 289 223 326 90 148 115 191 115 198 0 5 3 11
8 13 7 3 72 105 72 113 0 2 13 26 29 53 45 76 93 163 113 204 10 20 22 40 28
43 6 4 8 11 5 16 -4 5 -1 9 4 9 6 0 11 4 11 9 0 6 18 49 41 98 22 48 52 115
66 148 14 33 35 83 48 110 12 28 26 61 30 75 4 14 11 30 15 35 6 8 31 76 35
95 1 3 8 21 17 40 12 29 38 101 43 120 1 3 4 12 8 20 12 33 49 136 52 145 2 9
5 19 22 63 3 9 5 21 4 26 -1 4 2 13 7 20 6 6 13 27 18 46 10 44 9 42 18 62 4
9 5 21 2 27 -3 5 -2 11 3 13 6 1 12 14 15 28 3 14 10 43 16 65 14 54 17 63 29
115 7 25 14 52 16 60 19 64 52 216 49 222 -3 5 -1 8 3 8 5 0 10 8 11 18 5 41
10 68 15 82 3 8 8 29 11 45 2 17 11 58 19 93 8 34 13 62 10 62 -3 0 -1 6 4 13
5 6 10 27 12 46 1 19 6 40 11 46 5 7 7 15 4 18 -7 7 16 137 27 152 4 6 4 17
-1 25 -5 8 -6 18 -4 22 9 14 16 52 19 103 2 28 4 50 5 50 1 0 3 20 5 45 3 25
7 70 10 100 4 30 8 75 9 100 2 25 7 81 10 125 4 44 7 114 8 155 0 41 5 81 11
88 6 8 6 12 -2 12 -7 0 -9 5 -5 12 4 7 9 53 10 102 1 50 5 123 8 161 8 110 18
328 21 465 4 141 11 256 18 267 3 5 1 17 -3 28 -4 11 -4 32 1 48 5 16 4 27 -2
27 -6 0 -8 4 -4 9 11 19 27 589 17 618 -3 11 -41 23 -82 28 -8 1 -42 8 -74 15
-33 6 -69 13 -80 15 -12 1 -32 5 -46 9 -30 7 -74 15 -115 21 -50 8 -98 15
-130 21 -32 6 -81 13 -131 18 -17 2 -36 6 -42 10 -6 3 -32 8 -59 11 -55 6 -85
11 -116 21 -12 4 -35 8 -52 9 -16 1 -52 7 -80 14 -27 6 -63 13 -80 15 -16 2
-30 5 -30 6 0 1 -16 3 -35 6 -19 2 -42 7 -50 11 -8 3 -25 5 -37 4 -13 -1 -23
2 -23 7 0 6 -8 9 -17 7 -10 -1 -32 3 -50 10 -17 7 -34 11 -37 8 -2 -3 -11 -1
-18 3 -7 4 -19 9 -28 10 -8 2 -33 8 -55 14 -22 6 -49 12 -60 15 -29 5 -51 11
-130 35 -38 12 -81 23 -94 26 -13 3 -39 11 -57 19 -19 8 -34 12 -34 11 0 -2
-37 10 -82 26 -46 16 -88 30 -95 32 -7 1 -16 5 -19 9 -4 4 -16 7 -26 7 -10 0
-26 4 -36 9 -9 6 -48 21 -87 35 -38 13 -79 28 -90 32 -11 4 -23 6 -27 6 -5 -1
-8 3 -8 8 0 6 -11 10 -25 10 -14 0 -25 5 -25 10 0 6 -7 10 -15 10 -9 0 -34 9
-55 20 -22 11 -40 18 -40 16 0 -3 -23 6 -51 20 -28 15 -56 27 -63 28 -6 1 -27
10 -46 18 -126 57 -164 74 -240 110 -47 22 -119 56 -160 75 -124 57 -185 88
-188 96 -2 4 -9 7 -16 7 -6 0 -61 25 -121 57 -162 83 -183 93 -195 93 -5 0
-10 3 -10 8 0 10 -57 11 -67 1z"/>
</g>
</svg>
