<?xml version="1.0" encoding="utf-8"?>
<!-- Generator: Adobe Illustrator 16.0.4, SVG Export Plug-In . SVG Version: 6.00 Build 0)  -->
<!DOCTYPE svg PUBLIC "-//W3C//DTD SVG 1.1//EN" "http://www.w3.org/Graphics/SVG/1.1/DTD/svg11.dtd">
<svg version="1.1" id="Layer_1" xmlns="http://www.w3.org/2000/svg" xmlns:xlink="http://www.w3.org/1999/xlink" x="0px" y="0px"
	 width="428.4px" height="640.9px" viewBox="0 0 428.4 640.9" enable-background="new 0 0 428.4 640.9" xml:space="preserve">
<g id="Scroll">
	<g enable-background="new    ">
		<g enable-background="new    ">
			<defs>
				<path id="SVGID_1_" enable-background="new    " d="M15.9,630.1c0.2,0,0.4,0,0.6-0.1l390.2,9c-0.2,0-0.4,0.1-0.6,0.1
					C289,636.5,132.9,632.8,15.9,630.1z"/>
			</defs>
			<clipPath id="SVGID_2_">
				<use xlink:href="#SVGID_1_"  overflow="visible"/>
			</clipPath>
			<g clip-path="url(#SVGID_2_)" enable-background="new    ">
				<path fill="#735A3F" d="M15.9,630.1l390.2,9c0.2,0,0.4,0,0.6-0.1l-390.2-9C16.3,630.1,16.1,630.1,15.9,630.1"/>
			</g>
		</g>
		<g enable-background="new    ">
			<defs>
				<path id="SVGID_3_" enable-background="new    " d="M23.3,1.3c130.1,3,260.1,6,390.2,9c1.3,0,2.6,0.6,3.9,1.6
					c7.3,6,9,28,8.1,46.6c-0.5,11.3-2,22.2-4.1,29.9c-1.4,5.3-3.7,11.4-6.8,12.1c-0.2,0-0.4,0.1-0.6,0.1c-130.1-3-260.1-6-390.2-9
					c0.2,0,0.4,0,0.6-0.1c3.1-0.7,5.4-6.7,6.8-12.1c2.1-7.8,3.6-18.6,4.1-29.9C36.2,31,34.5,8.9,27.2,3C25.9,1.9,24.6,1.4,23.3,1.3z
					"/>
			</defs>
			<clipPath id="SVGID_4_">
				<use xlink:href="#SVGID_3_"  overflow="visible"/>
			</clipPath>
			<g clip-path="url(#SVGID_4_)" enable-background="new    ">
				<path fill="#675139" d="M23.3,1.3l390.2,9c1.3,0,2.6,0.6,3.9,1.6c2.6,2.1,4.4,6.1,5.7,11.4L33,14.3C31.7,9.1,29.8,5.1,27.2,3
					C25.9,1.9,24.6,1.4,23.3,1.3"/>
				<path fill="#6B543B" d="M33,14.3l390.2,9c0.2,0.9,0.4,1.9,0.6,2.8l-390.2-9C33.4,16.2,33.2,15.2,33,14.3"/>
				<path fill="#6F573D" d="M33.6,17.2l390.2,9c0.2,0.8,0.3,1.6,0.4,2.4L34,19.6C33.9,18.8,33.8,18,33.6,17.2"/>
				<path fill="#735A3F" d="M34,19.6l390.2,9c0.1,0.7,0.2,1.5,0.3,2.2l-390.2-9C34.3,21,34.2,20.3,34,19.6"/>
				<path fill="#775E41" d="M34.4,21.8l390.2,9c0.1,0.7,0.2,1.4,0.3,2.1l-390.2-9C34.6,23.2,34.5,22.5,34.4,21.8"/>
				<path fill="#7B6144" d="M34.6,23.9l390.2,9c0.1,0.7,0.2,1.3,0.2,2l-390.2-9C34.8,25.2,34.7,24.5,34.6,23.9"/>
				<path fill="#7F6446" d="M34.9,25.9l390.2,9c0.1,0.7,0.1,1.3,0.2,2L35,27.9C35,27.2,34.9,26.5,34.9,25.9"/>
				<path fill="#836748" d="M35,27.9l390.2,9c0.1,0.7,0.1,1.3,0.2,2l-390.2-9C35.1,29.2,35.1,28.5,35,27.9"/>
				<path fill="#876A4A" d="M35.2,29.9l390.2,9c0,0.7,0.1,1.4,0.1,2.1L35.3,32C35.3,31.3,35.2,30.6,35.2,29.9"/>
				<path fill="#8B6D4C" d="M35.3,32l390.2,9c0,0.7,0.1,1.4,0.1,2.2l-390.2-9C35.4,33.4,35.3,32.7,35.3,32"/>
				<path fill="#8F704E" d="M35.4,34.2l390.2,9c0,0.8,0.1,1.5,0.1,2.3l-390.2-9C35.5,35.7,35.4,34.9,35.4,34.2"/>
				<path fill="#937351" d="M35.5,36.5l390.2,9c0,0.8,0,1.6,0,2.4l-390.2-9C35.5,38.1,35.5,37.3,35.5,36.5"/>
				<path fill="#967753" d="M35.5,38.9l390.2,9c0,0.9,0,1.8,0,2.7l-390.2-9C35.5,40.7,35.5,39.8,35.5,38.9"/>
				<path fill="#9A7A55" d="M35.5,41.6l390.2,9c0,1,0,2,0,3l-390.2-9C35.5,43.6,35.5,42.6,35.5,41.6"/>
				<path fill="#9E7D57" d="M35.5,44.6l390.2,9c0,1.2-0.1,2.4-0.1,3.5l-390.2-9C35.4,47,35.5,45.8,35.5,44.6"/>
				<path fill="#A28059" d="M35.4,48.1l390.2,9c0,0.5,0,1-0.1,1.5c0,1-0.1,1.9-0.2,2.9l-390.2-9c0.1-1,0.1-1.9,0.2-2.9
					C35.3,49.1,35.4,48.6,35.4,48.1"/>
				<path fill="#A6835C" d="M35.2,52.5l390.2,9c-0.2,3-0.4,5.9-0.7,8.7l-390.2-9C34.7,58.4,35,55.5,35.2,52.5"/>
				<path fill="#AA865E" d="M34.4,61.2l390.2,9c-0.2,1.6-0.4,3.2-0.6,4.7l-390.2-9C34,64.4,34.2,62.8,34.4,61.2"/>
				<path fill="#A6835C" d="M33.8,65.9l390.2,9c-0.4,2.8-0.8,5.5-1.3,8l-390.2-9C33,71.4,33.4,68.7,33.8,65.9"/>
				<path fill="#A28059" d="M32.5,73.9l390.2,9c-0.3,1.3-0.5,2.5-0.8,3.7l-390.2-9C32,76.4,32.2,75.2,32.5,73.9"/>
				<path fill="#9E7D57" d="M31.7,77.6l390.2,9c-0.2,0.7-0.3,1.3-0.5,1.9c-0.1,0.3-0.1,0.5-0.2,0.8L31,80.3c0.1-0.3,0.1-0.5,0.2-0.8
					C31.4,78.9,31.5,78.3,31.7,77.6"/>
				<path fill="#9A7A55" d="M31,80.3l390.2,9c-0.2,0.7-0.4,1.4-0.6,2.2l-390.2-9C30.6,81.7,30.8,81,31,80.3"/>
				<path fill="#967753" d="M30.3,82.4l390.2,9c-0.2,0.6-0.4,1.2-0.6,1.8l-390.2-9C29.9,83.6,30.1,83,30.3,82.4"/>
				<path fill="#937351" d="M29.7,84.2l390.2,9c-0.2,0.5-0.4,1-0.6,1.5l-390.2-9C29.3,85.3,29.5,84.7,29.7,84.2"/>
				<path fill="#8F704E" d="M29.1,85.7l390.2,9c-0.2,0.4-0.4,0.9-0.6,1.3L28.5,87C28.7,86.6,28.9,86.2,29.1,85.7"/>
				<path fill="#8B6D4C" d="M28.5,87l390.2,9c-0.2,0.4-0.4,0.8-0.6,1.1L28,88.2C28.2,87.8,28.3,87.4,28.5,87"/>
				<path fill="#876A4A" d="M28,88.2l390.2,9c-0.2,0.3-0.4,0.7-0.6,1l-390.2-9C27.6,88.8,27.8,88.5,28,88.2"/>
				<path fill="#836748" d="M27.4,89.1l390.2,9c-0.2,0.3-0.4,0.6-0.6,0.8l-390.2-9C27,89.7,27.2,89.4,27.4,89.1"/>
				<path fill="#7F6446" d="M26.7,89.9l390.2,9c-0.2,0.2-0.4,0.5-0.6,0.7l-390.2-9C26.3,90.4,26.5,90.2,26.7,89.9"/>
				<path fill="#7B6144" d="M26.1,90.6l390.2,9c-0.2,0.2-0.5,0.4-0.7,0.5l-390.2-9C25.7,91,25.9,90.8,26.1,90.6"/>
				<path fill="#775E41" d="M25.4,91.1l390.2,9c-0.2,0.2-0.5,0.3-0.8,0.4l-390.2-9C24.9,91.4,25.2,91.3,25.4,91.1"/>
				<path fill="#735A3F" d="M24.7,91.5l390.2,9c-0.1,0-0.2,0.1-0.3,0.1c-0.2,0-0.4,0.1-0.5,0.1l-390.2-9c0.2,0,0.4,0,0.5-0.1
					C24.5,91.6,24.6,91.5,24.7,91.5"/>
				<path fill="#6F573D" d="M23.8,92l390.2,9c0,0,0,0-0.1,0L23.8,92c-0.1,0,0.2,0,0.2,0"/>
			</g>
		</g>
		<g enable-background="new    ">
			<defs>
				<path id="SVGID_5_" enable-background="new    " d="M412,50.3c1.3,0,2.6,2.2,3.2,6.1c0.9,5.5,0.4,13.2-1.6,20.4l-390.2-9
					c2-7.2,2.5-14.8,1.6-20.4c-0.7-4-1.9-6.1-3.2-6.1C151.9,44.3,282,47.3,412,50.3z"/>
			</defs>
			<clipPath id="SVGID_6_">
				<use xlink:href="#SVGID_5_"  overflow="visible"/>
			</clipPath>
			<g clip-path="url(#SVGID_6_)" enable-background="new    ">
				<path fill="#9E7D57" d="M23.5,67.8l390.2,9c0.2-0.6,0.3-1.2,0.5-1.8L24,66C23.8,66.6,23.7,67.2,23.5,67.8"/>
				<path fill="#A28059" d="M24,66l390.2,9c0.2-0.7,0.3-1.5,0.5-2.2l-390.2-9C24.3,64.6,24.1,65.3,24,66"/>
				<path fill="#A6835C" d="M24.4,63.8l390.2,9c0.2-1.2,0.4-2.3,0.6-3.5L25,60.3C24.9,61.5,24.7,62.7,24.4,63.8"/>
				<path fill="#AA865E" d="M25,60.3l390.2,9c0.1-0.5,0.1-0.9,0.2-1.4l-390.2-9C25.1,59.4,25.1,59.9,25,60.3"/>
				<path fill="#A6835C" d="M25.2,58.9l390.2,9c0.1-0.9,0.2-1.8,0.2-2.6l-390.2-9C25.4,57.2,25.3,58.1,25.2,58.9"/>
				<path fill="#A28059" d="M25.4,56.3l390.2,9c0-0.4,0-0.8,0.1-1.2l-390.2-9C25.5,55.5,25.5,55.9,25.4,56.3"/>
				<path fill="#9E7D57" d="M25.5,55.1l390.2,9c0-0.3,0-0.6,0-0.9l-390.2-9C25.5,54.5,25.5,54.8,25.5,55.1"/>
				<path fill="#9A7A55" d="M25.5,54.2l390.2,9c0-0.3,0-0.5,0-0.8l-390.2-9C25.5,53.7,25.5,54,25.5,54.2"/>
				<path fill="#967753" d="M25.5,53.5l390.2,9c0-0.2,0-0.5,0-0.7l-390.2-9C25.5,53,25.5,53.2,25.5,53.5"/>
				<path fill="#937351" d="M25.5,52.8l390.2,9c0-0.2,0-0.4,0-0.6l-390.2-9C25.5,52.4,25.5,52.6,25.5,52.8"/>
				<path fill="#8F704E" d="M25.5,52.2l390.2,9c0-0.2,0-0.4,0-0.6l-390.2-9C25.5,51.8,25.5,52,25.5,52.2"/>
				<path fill="#8B6D4C" d="M25.5,51.6l390.2,9c0-0.2,0-0.4,0-0.6L25.5,51C25.5,51.2,25.5,51.4,25.5,51.6"/>
				<path fill="#876A4A" d="M25.5,51l390.2,9c0-0.2,0-0.4,0-0.6l-390.2-9C25.5,50.6,25.5,50.8,25.5,51"/>
				<path fill="#836748" d="M25.4,50.5l390.2,9c0-0.2,0-0.4,0-0.6l-390.2-9C25.4,50.1,25.4,50.3,25.4,50.5"/>
				<path fill="#7F6446" d="M25.4,49.9l390.2,9c0-0.2,0-0.4-0.1-0.6l-390.2-9C25.4,49.5,25.4,49.7,25.4,49.9"/>
				<path fill="#7B6144" d="M25.3,49.3l390.2,9c0-0.2,0-0.4-0.1-0.6l-390.2-9C25.3,48.9,25.3,49.1,25.3,49.3"/>
				<path fill="#775E41" d="M25.3,48.7l390.2,9c0-0.2-0.1-0.4-0.1-0.6l-390.2-9C25.2,48.3,25.3,48.5,25.3,48.7"/>
				<path fill="#735A3F" d="M25.2,48.1l390.2,9c0-0.2-0.1-0.4-0.1-0.7c0,0,0,0,0,0l-390.2-9c0,0,0,0,0,0
					C25.1,47.6,25.2,47.9,25.2,48.1"/>
				<path fill="#6F573D" d="M25.1,47.4l390.2,9c0-0.3-0.1-0.6-0.1-0.8l-390.2-9C25,46.8,25.1,47.1,25.1,47.4"/>
				<path fill="#6B543B" d="M24.9,46.6l390.2,9c-0.1-0.3-0.1-0.7-0.2-1l-390.2-9C24.8,45.9,24.9,46.2,24.9,46.6"/>
				<path fill="#675139" d="M24.7,45.6l390.2,9c-0.7-2.8-1.8-4.3-2.9-4.3l-390.2-9C23,41.3,24,42.8,24.7,45.6"/>
			</g>
		</g>
		<g enable-background="new    ">
			<defs>
				<path id="SVGID_7_" enable-background="new    " d="M21.8,42.3l390.2,9c1.3,0,2.5,2,3.1,5.8c0.8,5.2,0.3,12.2-1.4,19.7l-390.2-9
					c1.8-7.6,2.3-14.6,1.4-19.7C24.3,44.3,23.1,42.3,21.8,42.3z"/>
			</defs>
			<clipPath id="SVGID_8_">
				<use xlink:href="#SVGID_7_"  overflow="visible"/>
			</clipPath>
			<g clip-path="url(#SVGID_8_)" enable-background="new    ">
				<path fill="#675139" d="M21.8,42.3l390.2,9c1.1,0,2.1,1.4,2.7,4.1l-390.2-9C23.9,43.7,22.9,42.3,21.8,42.3"/>
				<path fill="#6B543B" d="M24.6,46.3l390.2,9c0.1,0.3,0.1,0.6,0.2,0.9l-390.2-9C24.7,46.9,24.6,46.6,24.6,46.3"/>
				<path fill="#6F573D" d="M24.8,47.3l390.2,9c0,0.2,0.1,0.5,0.1,0.8L24.9,48C24.9,47.8,24.8,47.5,24.8,47.3"/>
				<path fill="#735A3F" d="M24.9,48l390.2,9c0,0,0,0,0,0c0,0.2,0.1,0.4,0.1,0.6L25,48.7C25,48.5,25,48.3,24.9,48
					C24.9,48.1,24.9,48.1,24.9,48"/>
				<path fill="#775E41" d="M25,48.7l390.2,9c0,0.2,0.1,0.4,0.1,0.6l-390.2-9C25.1,49.1,25,48.9,25,48.7"/>
				<path fill="#7B6144" d="M25.1,49.3l390.2,9c0,0.2,0,0.4,0.1,0.6l-390.2-9C25.1,49.7,25.1,49.5,25.1,49.3"/>
				<path fill="#7F6446" d="M25.2,49.9l390.2,9c0,0.2,0,0.4,0,0.5l-390.2-9C25.2,50.2,25.2,50,25.2,49.9"/>
				<path fill="#836748" d="M25.2,50.4l390.2,9c0,0.2,0,0.3,0,0.5l-390.2-9C25.2,50.7,25.2,50.6,25.2,50.4"/>
				<path fill="#876A4A" d="M25.2,50.9l390.2,9c0,0.2,0,0.3,0,0.5l-390.2-9C25.3,51.3,25.2,51.1,25.2,50.9"/>
				<path fill="#8B6D4C" d="M25.3,51.4l390.2,9c0,0.2,0,0.4,0,0.5L25.3,52C25.3,51.8,25.3,51.6,25.3,51.4"/>
				<path fill="#8F704E" d="M25.3,52l390.2,9c0,0.2,0,0.4,0,0.6l-390.2-9C25.3,52.3,25.3,52.1,25.3,52"/>
				<path fill="#937351" d="M25.3,52.5l390.2,9c0,0.2,0,0.4,0,0.6l-390.2-9C25.3,52.9,25.3,52.7,25.3,52.5"/>
				<path fill="#967753" d="M25.3,53.1l390.2,9c0,0.2,0,0.4,0,0.6l-390.2-9C25.3,53.5,25.3,53.3,25.3,53.1"/>
				<path fill="#9A7A55" d="M25.3,53.7l390.2,9c0,0.2,0,0.5,0,0.7l-390.2-9C25.3,54.2,25.3,54,25.3,53.7"/>
				<path fill="#9E7D57" d="M25.3,54.5l390.2,9c0,0.3,0,0.6,0,0.9l-390.2-9C25.3,55,25.3,54.8,25.3,54.5"/>
				<path fill="#A28059" d="M25.3,55.3l390.2,9c0,0.4,0,0.8-0.1,1.2l-390.2-9C25.2,56.1,25.3,55.7,25.3,55.3"/>
				<path fill="#A6835C" d="M25.2,56.5l390.2,9c-0.1,0.9-0.1,1.8-0.2,2.7L25,59.3C25.1,58.3,25.2,57.4,25.2,56.5"/>
				<path fill="#AA865E" d="M25,59.3l390.2,9c-0.1,0.5-0.1,1-0.2,1.6l-390.2-9C24.9,60.3,24.9,59.8,25,59.3"/>
				<path fill="#A6835C" d="M24.8,60.8l390.2,9c-0.2,1.4-0.4,2.9-0.8,4.5L24,65.3C24.3,63.8,24.6,62.3,24.8,60.8"/>
				<path fill="#A28059" d="M24,65.3l390.2,9c-0.2,0.8-0.4,1.7-0.5,2.5l-390.2-9C23.7,67,23.9,66.1,24,65.3"/>
			</g>
		</g>
		<g enable-background="new    ">
			<defs>
				<path id="SVGID_9_" enable-background="new    " d="M23.7,91.6c-0.2,0-0.4,0-0.6-0.1c-3.3-0.8-6.3-11-6.8-23.2
					C16,59.9,17,51.9,19.1,45.8c0.7-2.1,1.6-3.3,2.5-3.5c0.1,0,0.2,0,0.3,0l390.2,9c-0.1,0-0.2,0-0.3,0c-0.9,0.2-1.8,1.3-2.5,3.5
					c-2.1,6.1-3,14.2-2.7,22.6c0.5,12.2,3.5,22.3,6.8,23.2c0.2,0.1,0.4,0.1,0.6,0.1c-65-1.5-130-3-195.1-4.5
					C153.8,94.7,88.8,93.2,23.7,91.6z"/>
			</defs>
			<clipPath id="SVGID_10_">
				<use xlink:href="#SVGID_9_"  overflow="visible"/>
			</clipPath>
			<g clip-path="url(#SVGID_10_)" enable-background="new    ">
				<path fill="#675139" d="M23.7,91.6l390.2,9c-0.2,0-0.4,0-0.6-0.1c-1.8-0.5-3.6-3.8-4.8-8.9l-390.2-9c1.3,5,3,8.4,4.8,8.9
					C23.3,91.6,23.5,91.6,23.7,91.6"/>
				<path fill="#6B543B" d="M18.3,82.7l390.2,9c-0.2-0.8-0.4-1.7-0.6-2.6l-390.2-9C17.9,81,18.1,81.9,18.3,82.7"/>
				<path fill="#6F573D" d="M17.7,80.1l390.2,9c-0.1-0.7-0.3-1.3-0.4-2l-390.2-9C17.4,78.8,17.6,79.5,17.7,80.1"/>
				<path fill="#735A3F" d="M17.3,78.1l390.2,9c-0.1-0.6-0.2-1.2-0.3-1.8l-390.2-9C17.1,77,17.2,77.6,17.3,78.1"/>
				<path fill="#775E41" d="M17.1,76.4l390.2,9c-0.1-0.5-0.1-1-0.2-1.6l-390.2-9C16.9,75.3,17,75.9,17.1,76.4"/>
				<path fill="#7B6144" d="M16.9,74.8l390.2,9c-0.1-0.5-0.1-1-0.2-1.5l-390.2-9C16.8,73.8,16.8,74.3,16.9,74.8"/>
				<path fill="#7F6446" d="M16.7,73.3l390.2,9c0-0.5-0.1-0.9-0.1-1.4L16.6,72C16.6,72.4,16.7,72.9,16.7,73.3"/>
				<path fill="#836748" d="M16.6,72l390.2,9c0-0.4-0.1-0.8-0.1-1.3l-390.2-9C16.5,71.1,16.5,71.6,16.6,72"/>
				<path fill="#876A4A" d="M16.5,70.7l390.2,9c0-0.4-0.1-0.8-0.1-1.3l-390.2-9C16.4,69.9,16.5,70.3,16.5,70.7"/>
				<path fill="#8B6D4C" d="M16.4,69.4l390.2,9c0-0.3,0-0.7,0-1.1c0-0.1,0-0.1,0-0.2l-390.2-9c0,0.1,0,0.1,0,0.2
					C16.4,68.7,16.4,69.1,16.4,69.4"/>
				<path fill="#8F704E" d="M16.4,68.2l390.2,9c0-0.4,0-0.8,0-1.2L16.3,67C16.3,67.4,16.3,67.8,16.4,68.2"/>
				<path fill="#937351" d="M16.3,67l390.2,9c0-0.4,0-0.8,0-1.2l-390.2-9C16.3,66.3,16.3,66.6,16.3,67"/>
				<path fill="#967753" d="M16.3,65.9l390.2,9c0-0.4,0-0.8,0-1.2l-390.2-9C16.3,65.1,16.3,65.5,16.3,65.9"/>
				<path fill="#9A7A55" d="M16.3,64.7l390.2,9c0-0.4,0-0.9,0-1.3l-390.2-9C16.3,63.8,16.3,64.2,16.3,64.7"/>
				<path fill="#9E7D57" d="M16.3,63.4l390.2,9c0-0.5,0-1,0-1.4l-390.2-9C16.3,62.4,16.3,62.9,16.3,63.4"/>
				<path fill="#A28059" d="M16.4,61.9l390.2,9c0-0.6,0.1-1.2,0.1-1.8l-390.2-9C16.4,60.7,16.4,61.3,16.4,61.9"/>
				<path fill="#A6835C" d="M16.4,60.2l390.2,9c0.1-1.2,0.2-2.4,0.3-3.5l-390.2-9C16.6,57.8,16.5,59,16.4,60.2"/>
				<path fill="#AA865E" d="M16.8,56.7l390.2,9c0.1-0.6,0.1-1.1,0.2-1.6L17,55C16.9,55.6,16.8,56.1,16.8,56.7"/>
				<path fill="#A6835C" d="M17,55l390.2,9c0.2-1.2,0.4-2.4,0.6-3.6l-390.2-9C17.3,52.6,17.1,53.8,17,55"/>
				<path fill="#A28059" d="M17.6,51.5l390.2,9c0.1-0.7,0.3-1.3,0.4-2L18,49.5C17.8,50.1,17.7,50.8,17.6,51.5"/>
				<path fill="#9E7D57" d="M18,49.5l390.2,9c0.1-0.6,0.3-1.1,0.4-1.7l-390.2-9C18.3,48.3,18.1,48.9,18,49.5"/>
				<path fill="#9A7A55" d="M18.4,47.8l390.2,9c0.1-0.5,0.3-1,0.5-1.5l-390.2-9C18.7,46.8,18.6,47.3,18.4,47.8"/>
				<path fill="#967753" d="M18.9,46.3l390.2,9c0.1-0.2,0.1-0.4,0.2-0.5c0-0.1,0.1-0.3,0.1-0.4l-390.2-9c0,0.1-0.1,0.3-0.1,0.4
					C19,45.9,18.9,46.1,18.9,46.3"/>
				<path fill="#937351" d="M19.2,45.4l390.2,9c0.1-0.2,0.1-0.4,0.2-0.6l-390.2-9C19.3,45,19.3,45.2,19.2,45.4"/>
				<path fill="#8F704E" d="M19.4,44.8l390.2,9c0.1-0.2,0.2-0.3,0.2-0.5l-390.2-9C19.6,44.5,19.5,44.6,19.4,44.8"/>
				<path fill="#8B6D4C" d="M19.6,44.3l390.2,9c0.1-0.2,0.2-0.3,0.2-0.5l-390.2-9C19.8,44,19.7,44.2,19.6,44.3"/>
				<path fill="#876A4A" d="M19.9,43.9l390.2,9c0.1-0.1,0.2-0.3,0.3-0.4l-390.2-9C20.1,43.6,20,43.7,19.9,43.9"/>
				<path fill="#836748" d="M20.1,43.4l390.2,9c0.1-0.1,0.2-0.3,0.3-0.4l-390.2-9C20.3,43.2,20.2,43.3,20.1,43.4"/>
				<path fill="#7F6446" d="M20.4,43.1l390.2,9c0.1-0.1,0.2-0.2,0.3-0.3l-390.2-9C20.6,42.9,20.5,43,20.4,43.1"/>
				<path fill="#7B6144" d="M20.7,42.8l390.2,9c0.1-0.1,0.2-0.2,0.3-0.3L21,42.5C20.9,42.6,20.8,42.7,20.7,42.8"/>
				<path fill="#775E41" d="M21,42.5l390.2,9c0.1-0.1,0.2-0.1,0.4-0.2l-390.2-9C21.3,42.4,21.2,42.4,21,42.5"/>
				<path fill="#735A3F" d="M21.4,42.3l390.2,9c0,0,0.1,0,0.1,0c0.1,0,0.2,0,0.3,0l-390.2-9c-0.1,0-0.2,0-0.3,0
					C21.5,42.3,21.5,42.3,21.4,42.3"/>
				<path fill="#6F573D" d="M21.8,42L412,51c0,0,0,0,0,0L21.8,42c0,0,0.2,0,0.2,0"/>
			</g>
		</g>
		<g enable-background="new    ">
			<defs>
				<path id="SVGID_11_" enable-background="new    " d="M21.9,41.3c130.1,3,260.1,6,390.2,9c-0.1,0-0.2,0-0.3,0
					c-0.9,0.2-1.8,1.4-2.6,3.6c-2.2,6.4-3.2,14.8-2.8,23.7c0.5,12.6,3.6,23,6.9,23.9c0.2,0.1,0.4,0.1,0.6,0.1l-390.2-9
					c-0.2,0-0.4,0-0.6-0.1c-3.4-0.8-6.4-11.3-6.9-23.9c-0.4-8.9,0.6-17.3,2.8-23.7c0.8-2.2,1.7-3.4,2.6-3.6
					C21.7,41.3,21.8,41.3,21.9,41.3z"/>
			</defs>
			<clipPath id="SVGID_12_">
				<use xlink:href="#SVGID_11_"  overflow="visible"/>
			</clipPath>
			<g clip-path="url(#SVGID_12_)" enable-background="new    ">
				<path fill="#6F573D" d="M21.9,41L412,50c0,0,0,0,0,0L21.8,41C21.8,41,22,41,21.9,41"/>
				<path fill="#735A3F" d="M21.8,41.3l390.2,9c-0.1,0-0.2,0-0.3,0c-0.1,0-0.1,0-0.2,0l-390.2-9c0.1,0,0.1,0,0.2,0
					C21.6,41.3,21.7,41.3,21.8,41.3"/>
				<path fill="#775E41" d="M21.4,41.4l390.2,9c-0.1,0-0.3,0.1-0.4,0.2L21,41.5C21.1,41.5,21.3,41.4,21.4,41.4"/>
				<path fill="#7B6144" d="M21,41.5l390.2,9c-0.1,0.1-0.2,0.2-0.3,0.3l-390.2-9C20.8,41.7,20.9,41.6,21,41.5"/>
				<path fill="#7F6446" d="M20.7,41.8l390.2,9c-0.1,0.1-0.2,0.2-0.3,0.3l-390.2-9C20.5,42,20.6,41.9,20.7,41.8"/>
				<path fill="#836748" d="M20.4,42.1l390.2,9c-0.1,0.1-0.2,0.2-0.3,0.4l-390.2-9C20.2,42.4,20.3,42.3,20.4,42.1"/>
				<path fill="#876A4A" d="M20.1,42.5l390.2,9c-0.1,0.1-0.2,0.3-0.3,0.4L19.8,43C19.9,42.8,20,42.7,20.1,42.5"/>
				<path fill="#8B6D4C" d="M19.8,43L410,52c-0.1,0.1-0.2,0.3-0.3,0.5l-390.2-9C19.6,43.3,19.7,43.1,19.8,43"/>
				<path fill="#8F704E" d="M19.6,43.4l390.2,9c-0.1,0.2-0.2,0.3-0.2,0.5L19.3,44C19.4,43.8,19.5,43.6,19.6,43.4"/>
				<path fill="#937351" d="M19.3,44l390.2,9c-0.1,0.2-0.2,0.4-0.2,0.6l-390.2-9C19.2,44.3,19.2,44.1,19.3,44"/>
				<path fill="#967753" d="M19.1,44.5l390.2,9c0,0.1-0.1,0.3-0.1,0.4c-0.1,0.2-0.1,0.4-0.2,0.5l-390.2-9c0.1-0.2,0.1-0.4,0.2-0.5
					C19,44.8,19,44.7,19.1,44.5"/>
				<path fill="#9A7A55" d="M18.8,45.5l390.2,9c-0.2,0.5-0.3,1-0.5,1.6l-390.2-9C18.5,46.5,18.6,46,18.8,45.5"/>
				<path fill="#9E7D57" d="M18.3,47.1l390.2,9c-0.2,0.6-0.3,1.1-0.5,1.7l-390.2-9C18,48.2,18.1,47.6,18.3,47.1"/>
				<path fill="#A28059" d="M17.8,48.8l390.2,9c-0.2,0.7-0.3,1.4-0.5,2.1l-390.2-9C17.5,50.2,17.7,49.5,17.8,48.8"/>
				<path fill="#A6835C" d="M17.4,50.9l390.2,9c-0.2,1.2-0.4,2.5-0.6,3.7l-390.2-9C16.9,53.3,17.1,52.1,17.4,50.9"/>
				<path fill="#AA865E" d="M16.8,54.6l390.2,9c-0.1,0.6-0.1,1.1-0.2,1.7l-390.2-9C16.6,55.7,16.7,55.2,16.8,54.6"/>
				<path fill="#A6835C" d="M16.6,56.3l390.2,9c-0.1,1.2-0.2,2.4-0.3,3.7L16.2,60C16.3,58.7,16.4,57.5,16.6,56.3"/>
				<path fill="#A28059" d="M16.2,60l390.2,9c0,0.6-0.1,1.2-0.1,1.9l-390.2-9C16.2,61.2,16.2,60.6,16.2,60"/>
				<path fill="#9E7D57" d="M16.1,61.8l390.2,9c0,0.5,0,1,0,1.5l-390.2-9C16.1,62.9,16.1,62.3,16.1,61.8"/>
				<path fill="#9A7A55" d="M16.1,63.4l390.2,9c0,0.4,0,0.9,0,1.4l-390.2-9C16.1,64.3,16.1,63.8,16.1,63.4"/>
				<path fill="#967753" d="M16.1,64.7l390.2,9c0,0.4,0,0.9,0,1.3L16.1,66C16.1,65.6,16.1,65.1,16.1,64.7"/>
				<path fill="#937351" d="M16.1,66l390.2,9c0,0.4,0,0.8,0,1.2l-390.2-9C16.1,66.8,16.1,66.4,16.1,66"/>
				<path fill="#8F704E" d="M16.1,67.2l390.2,9c0,0.4,0,0.8,0,1.2l-390.2-9C16.1,68.1,16.1,67.7,16.1,67.2"/>
				<path fill="#8B6D4C" d="M16.1,68.5l390.2,9c0,0.1,0,0.1,0,0.2c0,0.4,0,0.7,0,1.1l-390.2-9c0-0.4,0-0.7-0.1-1.1
					C16.1,68.6,16.1,68.5,16.1,68.5"/>
				<path fill="#876A4A" d="M16.2,69.8l390.2,9c0,0.4,0,0.9,0.1,1.3L16.3,71C16.2,70.6,16.2,70.2,16.2,69.8"/>
				<path fill="#836748" d="M16.3,71l390.2,9c0,0.4,0.1,0.9,0.1,1.3l-390.2-9C16.3,71.9,16.3,71.5,16.3,71"/>
				<path fill="#7F6446" d="M16.4,72.4l390.2,9c0,0.5,0.1,1,0.1,1.4l-390.2-9C16.5,73.3,16.4,72.8,16.4,72.4"/>
				<path fill="#7B6144" d="M16.5,73.8l390.2,9c0.1,0.5,0.1,1,0.2,1.5l-390.2-9C16.6,74.8,16.5,74.3,16.5,73.8"/>
				<path fill="#775E41" d="M16.7,75.3l390.2,9c0.1,0.6,0.1,1.1,0.2,1.6l-390.2-9C16.8,76.4,16.7,75.9,16.7,75.3"/>
				<path fill="#735A3F" d="M16.9,76.9L407,86c0.1,0.6,0.2,1.2,0.3,1.8l-390.2-9C17.1,78.2,17,77.5,16.9,76.9"/>
				<path fill="#6F573D" d="M17.1,78.7l390.2,9c0.1,0.7,0.2,1.4,0.4,2.1l-390.2-9C17.4,80.2,17.3,79.5,17.1,78.7"/>
				<path fill="#6B543B" d="M17.5,80.8l390.2,9c0.2,0.9,0.4,1.8,0.6,2.6l-390.2-9C17.9,82.6,17.7,81.8,17.5,80.8"/>
				<path fill="#675139" d="M18.1,83.5l390.2,9c1.3,5.2,3.1,8.6,5,9.1c0.2,0.1,0.4,0.1,0.6,0.1l-390.2-9c-0.2,0-0.4,0-0.6-0.1
					C21.2,92.1,19.4,88.6,18.1,83.5"/>
			</g>
		</g>
		<g enable-background="new    ">
			<defs>
				<path id="SVGID_13_" enable-background="new    " d="M413.5,10.4c-0.4,0-0.7,0-1.1,0.1c-3.5,0.8-6.8,5.6-9.7,14.4
					c-4.7,14.2-8.2,38.6-10,70.4c-1.5,25.8-1.4,55.6,0.3,88.8c1.4,26.7,3.4,48.1,4.4,58.3c0.2,2,0.3,3.6,0.4,4.6
					c1.3,15.2,2.2,26.2,3.2,37.8c0.8,9.6,1.6,19.6,2.7,32.5c1.1,12.7,2.2,25.5,3.3,37.8c5.9,67.1,12,136.4,12.6,211.8
					c0.2,20.4-1.5,41.5-4.5,55.1c-2.3,10.6-5.2,16.5-8.4,17.1l-390.2-9c3.3-0.7,6.2-6.6,8.4-17.1c2.9-13.6,4.6-34.7,4.5-55.1
					C28.8,482.4,22.7,413,16.8,346c-1.1-12.4-2.2-25.2-3.3-37.8c-1.1-12.8-1.9-22.8-2.7-32.5c-1-11.6-1.9-22.6-3.2-37.8
					c-0.1-1-0.2-2.6-0.4-4.6c-1-10.3-3-31.6-4.4-58.3C1.1,141.8,1,112,2.5,86.2c1.9-31.8,5.3-56.2,10-70.4C15.4,7,18.7,2.2,22.3,1.4
					c0.4-0.1,0.7-0.1,1.1-0.1C153.4,4.3,283.4,7.4,413.5,10.4z"/>
			</defs>
			<clipPath id="SVGID_14_">
				<use xlink:href="#SVGID_13_"  overflow="visible"/>
			</clipPath>
			<g clip-path="url(#SVGID_14_)" enable-background="new    ">
				<path fill="#735A3F" d="M16.5,630.1l390.2,9c0.1,0,0.2-0.1,0.4-0.1l-390.2-9C16.7,630,16.6,630,16.5,630.1"/>
				<path fill="#775E41" d="M16.9,630l390.2,9c0.3-0.1,0.6-0.2,0.9-0.4l-390.2-9C17.4,629.7,17.2,629.9,16.9,630"/>
				<path fill="#7B6144" d="M17.7,629.5l390.2,9c0.3-0.2,0.5-0.4,0.8-0.6l-390.2-9C18.3,629.2,18,629.4,17.7,629.5"/>
				<path fill="#7F6446" d="M18.5,628.9l390.2,9c0.2-0.2,0.5-0.5,0.7-0.8l-390.2-9C19,628.5,18.8,628.7,18.5,628.9"/>
				<path fill="#836748" d="M19.2,628.2l390.2,9c0.2-0.3,0.4-0.6,0.7-0.9l-390.2-9C19.7,627.6,19.5,627.9,19.2,628.2"/>
				<path fill="#876A4A" d="M19.9,627.3l390.2,9c0.2-0.3,0.4-0.7,0.6-1l-390.2-9C20.3,626.6,20.1,627,19.9,627.3"/>
				<path fill="#8B6D4C" d="M20.5,626.3l390.2,9c0.2-0.4,0.4-0.8,0.6-1.2l-390.2-9C20.9,625.5,20.7,625.9,20.5,626.3"/>
				<path fill="#8F704E" d="M21.1,625.1l390.2,9c0.2-0.4,0.4-0.9,0.6-1.3l-390.2-9C21.5,624.2,21.3,624.7,21.1,625.1"/>
				<path fill="#937351" d="M21.7,623.8l390.2,9c0.2-0.5,0.4-1,0.6-1.5l-390.2-9C22.2,622.8,22,623.3,21.7,623.8"/>
				<path fill="#967753" d="M22.4,622.2l390.2,9c0.2-0.6,0.4-1.2,0.6-1.8l-390.2-9C22.8,621,22.6,621.6,22.4,622.2"/>
				<path fill="#9A7A55" d="M23,620.4l390.2,9c0.2-0.7,0.4-1.4,0.7-2.2l-390.2-9C23.4,619,23.2,619.7,23,620.4"/>
				<path fill="#9E7D57" d="M23.6,618.2l390.2,9c0.2-0.9,0.5-1.8,0.7-2.8l-390.2-9C24.1,616.4,23.9,617.3,23.6,618.2"/>
				<path fill="#A28059" d="M24.4,615.4l390.2,9c0.2-0.8,0.4-1.7,0.6-2.5c0.1-0.5,0.2-0.9,0.3-1.4l-390.2-9c-0.1,0.5-0.2,1-0.3,1.4
					C24.7,613.8,24.6,614.6,24.4,615.4"/>
				<path fill="#A6835C" d="M25.2,611.5l390.2,9c0.6-2.9,1.1-6.1,1.6-9.5l-390.2-9C26.3,605.4,25.8,608.6,25.2,611.5"/>
				<path fill="#AA865E" d="M26.8,601.9l390.2,9c0.3-2,0.5-4,0.7-6.1l-390.2-9C27.3,598,27.1,600,26.8,601.9"/>
				<path fill="#A6835C" d="M27.6,595.9l390.2,9c0.5-4.4,0.9-9,1.2-13.8l-390.2-9C28.4,586.8,28,591.5,27.6,595.9"/>
				<path fill="#A28059" d="M28.7,582l390.2,9c0.2-2.6,0.3-5.2,0.4-7.9l-390.2-9C29,576.8,28.9,579.4,28.7,582"/>
				<path fill="#9E7D57" d="M29.1,574.2l390.2,9c0.1-2.1,0.1-4.3,0.2-6.4l-390.2-9C29.3,569.9,29.2,572,29.1,574.2"/>
				<path fill="#9A7A55" d="M29.3,567.7l390.2,9c0-1.9,0.1-3.7,0.1-5.6l-390.2-9C29.4,564,29.4,565.9,29.3,567.7"/>
				<path fill="#967753" d="M29.4,562.1l390.2,9c0-1.5,0-2.9,0-4.4c0-1,0-2,0-3.1l-390.2-9c0,1,0,2,0,3.1
					C29.4,559.2,29.4,560.7,29.4,562.1"/>
				<path fill="#937351" d="M29.4,554.7l390.2,9c-0.1-7.6-0.2-15.1-0.4-22.5l-390.2-9C29.2,539.7,29.3,547.2,29.4,554.7"/>
				<path fill="#8F704E" d="M29,532.2l390.2,9c-0.2-8.1-0.4-16.1-0.7-24.1l-390.2-9C28.5,516.1,28.8,524.1,29,532.2"/>
				<path fill="#8B6D4C" d="M28.2,508.2l390.2,9c-0.3-9.1-0.8-18-1.2-26.9l-390.2-9C27.5,490.1,27.9,499.1,28.2,508.2"/>
				<path fill="#876A4A" d="M27,481.2l390.2,9c-0.6-11.1-1.2-22.1-2-33l-390.2-9C25.8,459.1,26.4,470.1,27,481.2"/>
				<path fill="#836748" d="M25.1,448.2l390.2,9c-1.1-16.9-2.4-33.5-3.8-50l-390.2-9C22.7,414.7,23.9,431.3,25.1,448.2"/>
				<path fill="#7F6446" d="M21.3,398.2l390.2,9c-1.4-17.6-3-35-4.5-52.3c-1.1-12.4-2.2-25.2-3.3-37.8c-0.8-9.6-1.5-17.5-2.1-25
					l-390.2-9c0.6,7.4,1.3,15.4,2.1,25c1.1,12.7,2.2,25.5,3.3,37.8C18.3,363.2,19.9,380.6,21.3,398.2"/>
				<path fill="#836748" d="M11.4,283.1l390.2,9c-0.2-2.5-0.4-5-0.6-7.5c-0.2-2.1-0.3-4.1-0.5-6.2l-390.2-9c0.2,2.1,0.3,4.1,0.5,6.2
					C11,278.1,11.2,280.6,11.4,283.1"/>
				<path fill="#7F6446" d="M10.3,269.4l390.2,9c-0.8-9.5-1.6-19.1-2.7-31.6c-0.1-1-0.2-2.6-0.4-4.6c-0.5-5-1.2-12.5-2-22l-390.2-9
					c0.8,9.5,1.5,17,2,22c0.2,2,0.3,3.6,0.4,4.6C8.7,250.3,9.5,260,10.3,269.4"/>
				<path fill="#836748" d="M5.3,211.3l390.2,9c-0.5-5.7-1-12.2-1.4-19.2l-390.2-9C4.3,199.1,4.8,205.6,5.3,211.3"/>
				<path fill="#876A4A" d="M3.8,192.1l390.2,9c-0.4-5.4-0.7-11.1-1-17.1c0-0.1,0-0.2,0-0.3l-390.2-9c0,0.1,0,0.2,0,0.3
					C3.1,181,3.5,186.7,3.8,192.1"/>
				<path fill="#8B6D4C" d="M2.8,174.7l390.2,9c-0.3-5.2-0.5-10.3-0.7-15.4l-390.2-9C2.3,164.4,2.5,169.5,2.8,174.7"/>
				<path fill="#8F704E" d="M2.1,159.3l390.2,9c-0.2-4.7-0.3-9.3-0.4-13.8l-390.2-9C1.8,150,1.9,154.6,2.1,159.3"/>
				<path fill="#937351" d="M1.7,145.5l390.2,9c-0.1-4.3-0.2-8.6-0.2-12.7l-390.2-9C1.5,136.9,1.6,141.2,1.7,145.5"/>
				<path fill="#967753" d="M1.5,132.7l390.2,9c0-4.1,0-8.1,0-12l-390.2-9C1.4,124.7,1.4,128.7,1.5,132.7"/>
				<path fill="#9A7A55" d="M1.4,120.7l390.2,9c0-4,0.1-7.8,0.2-11.7L1.6,109C1.5,112.9,1.4,116.8,1.4,120.7"/>
				<path fill="#9E7D57" d="M1.6,109l390.2,9c0.1-4,0.2-8,0.4-11.8l-390.2-9C1.8,101.1,1.7,105,1.6,109"/>
				<path fill="#A28059" d="M1.9,97.2l390.2,9c0.1-3.7,0.3-7.4,0.5-11c0.1-1,0.1-1.9,0.2-2.9l-390.2-9c-0.1,1-0.1,1.9-0.2,2.9
					C2.3,89.8,2.1,93.5,1.9,97.2"/>
				<path fill="#A6835C" d="M2.6,83.3l390.2,9c0.6-9.6,1.4-18.6,2.2-26.7l-390.2-9C4,64.8,3.2,73.7,2.6,83.3"/>
				<path fill="#AA865E" d="M4.9,56.6l390.2,9c0.4-3.6,0.8-7,1.3-10.3l-390.2-9C5.7,49.6,5.3,53,4.9,56.6"/>
				<path fill="#A6835C" d="M6.1,46.3l390.2,9c0.8-5.8,1.7-11,2.6-15.8l-390.2-9C7.8,35.3,6.9,40.6,6.1,46.3"/>
				<path fill="#A28059" d="M8.8,30.6l390.2,9c0.4-2.2,0.9-4.4,1.4-6.3l-390.2-9C9.7,26.2,9.2,28.3,8.8,30.6"/>
				<path fill="#9E7D57" d="M10.1,24.2l390.2,9c0.4-1.5,0.8-3,1.1-4.4l-390.2-9C10.9,21.2,10.5,22.7,10.1,24.2"/>
				<path fill="#9A7A55" d="M11.3,19.8l390.2,9c0.3-1.2,0.7-2.3,1-3.4l-390.2-9C12,17.5,11.6,18.6,11.3,19.8"/>
				<path fill="#967753" d="M12.3,16.4l390.2,9c0.1-0.2,0.1-0.4,0.2-0.6c0.3-0.8,0.5-1.5,0.8-2.2l-390.2-9c-0.3,0.7-0.5,1.5-0.8,2.2
					C12.4,16,12.4,16.2,12.3,16.4"/>
				<path fill="#937351" d="M13.3,13.5l390.2,9c0.3-0.9,0.6-1.7,1-2.4l-390.2-9C13.9,11.9,13.6,12.7,13.3,13.5"/>
				<path fill="#8F704E" d="M14.2,11.1l390.2,9c0.3-0.7,0.6-1.4,0.9-2.1L15.2,9C14.9,9.7,14.6,10.4,14.2,11.1"/>
				<path fill="#8B6D4C" d="M15.2,9l390.2,9c0.3-0.6,0.6-1.3,1-1.8l-390.2-9C15.8,7.8,15.5,8.4,15.2,9"/>
				<path fill="#876A4A" d="M16.1,7.2l390.2,9c0.3-0.6,0.6-1.1,1-1.6l-390.2-9C16.8,6.1,16.5,6.7,16.1,7.2"/>
				<path fill="#836748" d="M17.1,5.6l390.2,9c0.3-0.5,0.7-1,1-1.4l-390.2-9C17.8,4.7,17.5,5.1,17.1,5.6"/>
				<path fill="#7F6446" d="M18.1,4.3l390.2,9c0.4-0.4,0.7-0.8,1.1-1.1l-390.2-9C18.9,3.5,18.5,3.8,18.1,4.3"/>
				<path fill="#7B6144" d="M19.2,3.1l390.2,9c0.4-0.4,0.8-0.7,1.2-0.9l-390.2-9C20,2.5,19.6,2.8,19.2,3.1"/>
				<path fill="#775E41" d="M20.4,2.2l390.2,9c0.4-0.3,0.9-0.5,1.3-0.6l-390.2-9C21.3,1.7,20.8,1.9,20.4,2.2"/>
				<path fill="#735A3F" d="M21.7,1.6l390.2,9c0.2-0.1,0.4-0.1,0.5-0.1c0.3-0.1,0.6-0.1,1-0.1l-390.2-9c-0.3,0-0.6,0-1,0.1
					C22.1,1.5,21.9,1.5,21.7,1.6"/>
				<path fill="#6F573D" d="M23.2,1l390.2,9c0,0,0.1,0,0.1,0L23.3,1c0,0-0.3,0-0.3,0"/>
			</g>
		</g>
		<g enable-background="new    ">
			<defs>
				<path id="SVGID_15_" enable-background="new    " d="M23.4,0.3c130.1,3,260.1,6,390.2,9c-0.4,0-0.7,0-1.1,0.1
					c-3.6,0.8-6.9,5.7-9.9,14.5c-4.8,14.4-8.3,38.9-10.1,71.1c-1.5,25.9-1.4,56,0.3,89.3c1.4,26.8,3.5,48.2,4.4,58.5
					c0.2,2,0.3,3.6,0.4,4.6c1.3,15.2,2.2,26.2,3.2,37.8c0.8,9.6,1.6,19.6,2.7,32.5c1.1,12.7,2.2,25.5,3.3,37.8
					c5.9,67,12,136.2,12.6,211.5c0.2,20.1-1.5,41-4.4,54.3c-2.2,10.3-5.1,16.1-8.3,16.8c-0.2,0-0.4,0.1-0.6,0.1l-390.2-9
					c0.2,0,0.4,0,0.6-0.1c3.2-0.7,6.1-6.5,8.3-16.8c2.9-13.4,4.5-34.2,4.4-54.3c-0.6-75.3-6.7-144.5-12.6-211.5
					c-1.1-12.4-2.2-25.2-3.3-37.8c-1.1-12.9-1.9-22.8-2.7-32.5c-1-11.6-1.8-22.6-3.2-37.8c-0.1-1-0.2-2.6-0.4-4.6
					c-1-10.3-3-31.7-4.4-58.5C0.8,142,0.7,112,2.3,86C4.1,53.9,7.6,29.4,12.4,15c2.9-8.9,6.3-13.8,9.9-14.5
					C22.6,0.4,23,0.3,23.4,0.3z"/>
			</defs>
			<clipPath id="SVGID_16_">
				<use xlink:href="#SVGID_15_"  overflow="visible"/>
			</clipPath>
			<g clip-path="url(#SVGID_16_)" enable-background="new    ">
				<path fill="#6F573D" d="M23.4,0l390.2,9c0,0-0.1,0-0.1,0L23.2,0c0,0-0.2,0-0.2,0"/>
				<path fill="#735A3F" d="M23.2,0.3l390.2,9c-0.3,0-0.6,0-1,0.1c-0.2,0-0.4,0.1-0.6,0.2l-390.2-9c0.2-0.1,0.4-0.1,0.6-0.2
					C22.6,0.4,22.9,0.3,23.2,0.3"/>
				<path fill="#775E41" d="M21.7,0.6l390.2,9c-0.4,0.1-0.9,0.4-1.3,0.6l-390.2-9C20.8,0.9,21.3,0.7,21.7,0.6"/>
				<path fill="#7B6144" d="M20.4,1.2l390.2,9c-0.4,0.3-0.8,0.6-1.2,0.9l-390.2-9C19.6,1.8,20,1.5,20.4,1.2"/>
				<path fill="#7F6446" d="M19.2,2.1l390.2,9c-0.4,0.3-0.7,0.7-1.1,1.2l-390.2-9C18.5,2.9,18.8,2.5,19.2,2.1"/>
				<path fill="#836748" d="M18.1,3.3l390.2,9c-0.3,0.4-0.7,0.9-1,1.4l-390.2-9C17.4,4.2,17.8,3.7,18.1,3.3"/>
				<path fill="#876A4A" d="M17.1,4.7l390.2,9c-0.3,0.5-0.7,1-1,1.6l-390.2-9C16.4,5.7,16.7,5.2,17.1,4.7"/>
				<path fill="#8B6D4C" d="M16.1,6.3l390.2,9c-0.3,0.6-0.6,1.2-1,1.8l-390.2-9C15.4,7.5,15.8,6.9,16.1,6.3"/>
				<path fill="#8F704E" d="M15.1,8.1l390.2,9c-0.3,0.7-0.6,1.4-1,2.1l-390.2-9C14.5,9.5,14.8,8.8,15.1,8.1"/>
				<path fill="#937351" d="M14.2,10.2l390.2,9c-0.3,0.8-0.6,1.6-1,2.5l-390.2-9C13.5,11.8,13.8,11,14.2,10.2"/>
				<path fill="#967753" d="M13.2,12.7l390.2,9c-0.3,0.7-0.5,1.5-0.8,2.3c-0.1,0.2-0.1,0.4-0.2,0.6l-390.2-9
					c0.1-0.2,0.1-0.4,0.2-0.6C12.7,14.2,12.9,13.4,13.2,12.7"/>
				<path fill="#9A7A55" d="M12.2,15.6l390.2,9c-0.4,1.1-0.7,2.2-1,3.4L11.2,19C11.5,17.8,11.8,16.7,12.2,15.6"/>
				<path fill="#9E7D57" d="M11.2,19l390.2,9c-0.4,1.4-0.8,2.9-1.2,4.5L10,23.5C10.4,21.9,10.8,20.4,11.2,19"/>
				<path fill="#A28059" d="M10,23.5l390.2,9c-0.5,2-1,4.2-1.4,6.4l-390.2-9C9,27.6,9.5,25.5,10,23.5"/>
				<path fill="#A6835C" d="M8.6,29.9l390.2,9c-1,4.8-1.8,10.1-2.6,15.9L6,45.9C6.8,40,7.6,34.7,8.6,29.9"/>
				<path fill="#AA865E" d="M6,45.9l390.2,9c-0.5,3.3-0.9,6.8-1.3,10.4l-390.2-9C5.1,52.6,5.5,49.2,6,45.9"/>
				<path fill="#A6835C" d="M4.7,56.2l390.2,9c-0.9,8.2-1.7,17.2-2.3,26.9l-390.2-9C3,73.4,3.8,64.4,4.7,56.2"/>
				<path fill="#A28059" d="M2.4,83.2l390.2,9c-0.1,1-0.1,1.9-0.2,2.9c-0.2,3.6-0.4,7.3-0.5,11.1l-390.2-9C1.9,93.3,2,89.6,2.3,86
					C2.3,85.1,2.4,84.1,2.4,83.2"/>
				<path fill="#9E7D57" d="M1.7,97.1l390.2,9c-0.2,3.9-0.3,7.9-0.4,11.9L1.4,109C1.4,105,1.6,101,1.7,97.1"/>
				<path fill="#9A7A55" d="M1.4,109l390.2,9c-0.1,3.8-0.1,7.8-0.2,11.8l-390.2-9C1.2,116.8,1.3,112.9,1.4,109"/>
				<path fill="#967753" d="M1.2,120.8l390.2,9c0,4,0,8,0,12.1l-390.2-9C1.2,128.8,1.2,124.8,1.2,120.8"/>
				<path fill="#937351" d="M1.2,132.9l390.2,9c0,4.2,0.1,8.5,0.2,12.8l-390.2-9C1.3,141.3,1.3,137.1,1.2,132.9"/>
				<path fill="#8F704E" d="M1.4,145.7l390.2,9c0.1,4.6,0.3,9.2,0.4,13.9l-390.2-9C1.7,154.9,1.6,150.2,1.4,145.7"/>
				<path fill="#8B6D4C" d="M1.9,159.6l390.2,9c0.2,5.1,0.4,10.2,0.7,15.5l-390.2-9C2.3,169.8,2.1,164.7,1.9,159.6"/>
				<path fill="#876A4A" d="M2.6,175.1l390.2,9c0,0.1,0,0.1,0,0.2c0.3,6,0.7,11.7,1,17.1l-390.2-9c-0.4-5.4-0.7-11.1-1-17.1
					C2.6,175.2,2.6,175.1,2.6,175.1"/>
				<path fill="#836748" d="M3.6,192.4l390.2,9c0.5,7.1,1,13.6,1.4,19.3L5,211.7C4.6,205.9,4.1,199.5,3.6,192.4"/>
				<path fill="#7F6446" d="M5,211.7l390.2,9c0.8,9.5,1.5,17.1,2,22c0.2,2,0.3,3.6,0.4,4.6c1.1,12.2,1.8,21.8,2.6,31.1l-390.2-9
					c-0.8-9.3-1.6-18.8-2.6-31.1c-0.1-1-0.2-2.6-0.4-4.6C6.5,228.8,5.8,221.2,5,211.7"/>
				<path fill="#836748" d="M10.1,269.4l390.2,9c0.2,2.2,0.4,4.5,0.6,6.7c0.2,2.1,0.3,4.3,0.5,6.4l-390.2-9
					c-0.2-2.2-0.4-4.3-0.5-6.4C10.4,273.8,10.2,271.6,10.1,269.4"/>
				<path fill="#7F6446" d="M11.1,282.5l390.2,9c0.6,7.7,1.3,16,2.2,26c1.1,12.7,2.2,25.5,3.3,37.8c1.5,17.2,3,34.6,4.5,52.2
					l-390.2-9c-1.4-17.6-3-35-4.5-52.2c-1.1-12.4-2.2-25.2-3.3-37.8C12.5,298.5,11.8,290.3,11.1,282.5"/>
				<path fill="#836748" d="M21.1,398.6l390.2,9c1.4,16.5,2.6,33.1,3.8,50l-390.2-9C23.7,431.7,22.4,415.1,21.1,398.6"/>
				<path fill="#876A4A" d="M24.8,448.6l390.2,9c0.7,10.9,1.4,21.8,2,32.9l-390.2-9C26.2,470.5,25.6,459.5,24.8,448.6"/>
				<path fill="#8B6D4C" d="M26.8,481.5l390.2,9c0.5,8.9,0.9,17.8,1.2,26.9l-390.2-9C27.7,499.4,27.3,490.4,26.8,481.5"/>
				<path fill="#8F704E" d="M28,508.4l390.2,9c0.3,7.9,0.6,15.9,0.7,24l-390.2-9C28.6,524.4,28.3,516.4,28,508.4"/>
				<path fill="#937351" d="M28.8,532.4l390.2,9c0.2,7.4,0.3,15,0.4,22.5l-390.2-9C29.1,547.4,28.9,539.9,28.8,532.4"/>
				<path fill="#967753" d="M29.1,554.9l390.2,9c0,1,0,2,0,3c0,1.4,0,2.9,0,4.3l-390.2-9c0-1.4,0-2.9,0-4.3
					C29.2,556.9,29.1,555.9,29.1,554.9"/>
				<path fill="#9A7A55" d="M29.2,562.2l390.2,9c0,1.8,0,3.7-0.1,5.5l-390.2-9C29.1,565.9,29.2,564.1,29.2,562.2"/>
				<path fill="#9E7D57" d="M29.1,567.8l390.2,9c0,2.1-0.1,4.2-0.2,6.3l-390.2-9C29,572,29.1,569.9,29.1,567.8"/>
				<path fill="#A28059" d="M28.9,574.1l390.2,9c-0.1,2.6-0.2,5.2-0.4,7.8l-390.2-9C28.7,579.3,28.8,576.7,28.9,574.1"/>
				<path fill="#A6835C" d="M28.5,581.9l390.2,9c-0.3,4.7-0.7,9.3-1.2,13.6l-390.2-9C27.8,591.2,28.2,586.6,28.5,581.9"/>
				<path fill="#AA865E" d="M27.4,595.5l390.2,9c-0.2,2.1-0.5,4-0.7,6l-390.2-9C26.9,599.5,27.1,597.5,27.4,595.5"/>
				<path fill="#A6835C" d="M26.6,601.5l390.2,9c-0.5,3.4-1,6.5-1.6,9.4l-390.2-9C25.6,608,26.2,604.8,26.6,601.5"/>
				<path fill="#A28059" d="M25.1,610.8l390.2,9c-0.1,0.5-0.2,0.9-0.3,1.4c-0.2,0.9-0.4,1.7-0.6,2.5l-390.2-9
					c0.2-0.8,0.4-1.6,0.6-2.5C24.9,611.8,25,611.3,25.1,610.8"/>
				<path fill="#9E7D57" d="M24.2,614.7l390.2,9c-0.2,1-0.5,1.9-0.7,2.7l-390.2-9C23.8,616.6,24,615.7,24.2,614.7"/>
				<path fill="#9A7A55" d="M23.5,617.5l390.2,9c-0.2,0.7-0.4,1.5-0.6,2.1l-390.2-9C23.1,618.9,23.3,618.2,23.5,617.5"/>
				<path fill="#967753" d="M22.9,619.6l390.2,9c-0.2,0.6-0.4,1.2-0.6,1.8l-390.2-9C22.5,620.8,22.7,620.2,22.9,619.6"/>
				<path fill="#937351" d="M22.3,621.4l390.2,9c-0.2,0.5-0.4,1-0.6,1.5l-390.2-9C21.9,622.4,22.1,621.9,22.3,621.4"/>
				<path fill="#8F704E" d="M21.7,622.9l390.2,9c-0.2,0.5-0.4,0.9-0.6,1.3l-390.2-9C21.3,623.8,21.5,623.3,21.7,622.9"/>
				<path fill="#8B6D4C" d="M21.1,624.2l390.2,9c-0.2,0.4-0.4,0.8-0.6,1.1l-390.2-9C20.7,625,20.9,624.6,21.1,624.2"/>
				<path fill="#876A4A" d="M20.5,625.3l390.2,9c-0.2,0.4-0.4,0.7-0.6,1l-390.2-9C20.1,626,20.3,625.7,20.5,625.3"/>
				<path fill="#836748" d="M19.8,626.3l390.2,9c-0.2,0.3-0.4,0.6-0.7,0.9l-390.2-9C19.4,627,19.6,626.7,19.8,626.3"/>
				<path fill="#7F6446" d="M19.2,627.2l390.2,9c-0.2,0.3-0.5,0.5-0.7,0.7l-390.2-9C18.7,627.7,19,627.5,19.2,627.2"/>
				<path fill="#7B6144" d="M18.5,628l390.2,9c-0.3,0.2-0.5,0.4-0.8,0.6l-390.2-9C18,628.4,18.2,628.2,18.5,628"/>
				<path fill="#775E41" d="M17.7,628.5l390.2,9c-0.3,0.2-0.6,0.3-0.9,0.4l-390.2-9C17.2,628.9,17.4,628.7,17.7,628.5"/>
				<path fill="#735A3F" d="M16.9,629l390.2,9c-0.1,0-0.2,0.1-0.4,0.1c-0.2,0-0.4,0.1-0.6,0.1l-390.2-9c0.2,0,0.4,0,0.6-0.1
					C16.6,629,16.8,629,16.9,629"/>
				<polyline fill="#6F573D" points="15.9,629 406,638 406,638 15.9,629 16,629 				"/>
			</g>
		</g>
		<g enable-background="new    ">
			<defs>
				<path id="SVGID_17_" enable-background="new    " d="M15.8,594c0.1,0,0.2,0,0.3,0c1.6-0.3,3.3-3.6,4.6-9.2
					c1.7-6.9,2.4-15.9,1.9-24.6c-0.8-15-3.8-25.8-7.9-28.1c-0.5-0.3-1-0.4-1.5-0.4c130.1,3,260.1,6,390.2,9l0,0c0.5,0,1,0.2,1.5,0.4
					c4.1,2.3,7.1,13.1,7.9,28.1c0.4,8.7-0.3,17.6-1.9,24.6c-1.3,5.6-3.1,8.9-4.6,9.2c-0.1,0-0.2,0-0.3,0
					C275.9,600,145.9,597,15.8,594z"/>
			</defs>
			<clipPath id="SVGID_18_">
				<use xlink:href="#SVGID_17_"  overflow="visible"/>
			</clipPath>
			<g clip-path="url(#SVGID_18_)" enable-background="new    ">
				<path fill="#6F573D" d="M15.8,594l390.2,9c0,0,0,0,0,0L15.8,594c0,0,0.2,0,0.2,0"/>
				<path fill="#735A3F" d="M15.8,594l390.2,9c0.1,0,0.2,0,0.3,0c0.1,0,0.1,0,0.2,0l-390.2-9c-0.1,0-0.1,0-0.2,0
					C16,594,15.9,594,15.8,594"/>
				<path fill="#775E41" d="M16.3,593.9l390.2,9c0.1,0,0.3-0.1,0.4-0.2l-390.2-9C16.5,593.8,16.4,593.8,16.3,593.9"/>
				<path fill="#7B6144" d="M16.6,593.7l390.2,9c0.1-0.1,0.3-0.2,0.4-0.3l-390.2-9C16.9,593.5,16.8,593.6,16.6,593.7"/>
				<path fill="#7F6446" d="M17,593.4l390.2,9c0.1-0.1,0.3-0.3,0.4-0.4l-390.2-9C17.3,593.1,17.2,593.3,17,593.4"/>
				<path fill="#836748" d="M17.4,593l390.2,9c0.1-0.2,0.3-0.3,0.4-0.5l-390.2-9C17.7,592.7,17.6,592.8,17.4,593"/>
				<path fill="#876A4A" d="M17.8,592.5l390.2,9c0.1-0.2,0.3-0.4,0.4-0.6l-390.2-9C18.1,592.1,17.9,592.3,17.8,592.5"/>
				<path fill="#8B6D4C" d="M18.2,591.8l390.2,9c0.1-0.2,0.3-0.5,0.4-0.8l-390.2-9C18.5,591.3,18.3,591.6,18.2,591.8"/>
				<path fill="#8F704E" d="M18.6,591.1l390.2,9c0.1-0.3,0.3-0.6,0.4-0.9l-390.2-9C18.9,590.5,18.7,590.8,18.6,591.1"/>
				<path fill="#937351" d="M19,590.2l390.2,9c0.1-0.3,0.3-0.7,0.4-1l-390.2-9C19.3,589.5,19.1,589.9,19,590.2"/>
				<path fill="#967753" d="M19.4,589.2l390.2,9c0.1-0.4,0.3-0.8,0.4-1.2l-390.2-9C19.7,588.4,19.5,588.8,19.4,589.2"/>
				<path fill="#9A7A55" d="M19.8,587.9l390.2,9c0.1-0.5,0.3-0.9,0.4-1.4l-390.2-9C20.1,587,20,587.5,19.8,587.9"/>
				<path fill="#9E7D57" d="M20.3,586.5l390.2,9c0.2-0.6,0.3-1.1,0.5-1.8l-390.2-9C20.6,585.4,20.4,586,20.3,586.5"/>
				<path fill="#A28059" d="M20.7,584.8l390.2,9c0,0,0,0,0,0c0.2-0.7,0.3-1.5,0.5-2.2l-390.2-9C21.1,583.3,20.9,584,20.7,584.8
					C20.7,584.7,20.7,584.7,20.7,584.8"/>
				<path fill="#A6835C" d="M21.2,582.5l390.2,9c0.3-1.4,0.5-2.9,0.7-4.4l-390.2-9C21.7,579.6,21.5,581.1,21.2,582.5"/>
				<path fill="#AA865E" d="M21.9,578.1l390.2,9c0.1-0.7,0.2-1.4,0.3-2.1l-390.2-9C22.1,576.7,22,577.4,21.9,578.1"/>
				<path fill="#A6835C" d="M22.2,576l390.2,9c0.2-1.5,0.3-2.9,0.4-4.4l-390.2-9C22.5,573.1,22.4,574.6,22.2,576"/>
				<path fill="#A28059" d="M22.6,571.6l390.2,9c0-0.8,0.1-1.5,0.1-2.3l-390.2-9C22.7,570,22.6,570.8,22.6,571.6"/>
				<path fill="#9E7D57" d="M22.7,569.2l390.2,9c0-0.6,0-1.2,0.1-1.8l-390.2-9C22.7,568,22.7,568.6,22.7,569.2"/>
				<path fill="#9A7A55" d="M22.8,567.4l390.2,9c0-0.5,0-1.1,0-1.6l-390.2-9C22.8,566.3,22.8,566.9,22.8,567.4"/>
				<path fill="#967753" d="M22.8,565.8l390.2,9c0-0.5,0-1,0-1.5l-390.2-9C22.8,564.8,22.8,565.3,22.8,565.8"/>
				<path fill="#937351" d="M22.8,564.3l390.2,9c0-0.5,0-1,0-1.4l-390.2-9C22.8,563.3,22.8,563.8,22.8,564.3"/>
				<path fill="#8F704E" d="M22.8,562.8l390.2,9c0-0.5,0-0.9,0-1.4l-390.2-9C22.7,561.9,22.7,562.4,22.8,562.8"/>
				<path fill="#8B6D4C" d="M22.7,561.4l390.2,9c0-0.4,0-0.8-0.1-1.3c0-0.1,0-0.1,0-0.2l-390.2-9c0,0.1,0,0.1,0,0.2
					C22.7,560.6,22.7,561,22.7,561.4"/>
				<path fill="#876A4A" d="M22.6,560l390.2,9c0-0.7-0.1-1.3-0.1-1.9l-390.2-9C22.6,558.7,22.6,559.3,22.6,560"/>
				<path fill="#836748" d="M22.5,558l390.2,9c0-0.6-0.1-1.3-0.1-1.9l-390.2-9C22.4,556.8,22.5,557.4,22.5,558"/>
				<path fill="#7F6446" d="M22.4,556.1l390.2,9c-0.1-0.7-0.1-1.3-0.2-1.9l-390.2-9C22.3,554.8,22.3,555.5,22.4,556.1"/>
				<path fill="#7B6144" d="M22.2,554.2l390.2,9c-0.1-0.7-0.1-1.3-0.2-2l-390.2-9C22.1,552.9,22.1,553.5,22.2,554.2"/>
				<path fill="#775E41" d="M22,552.2l390.2,9c-0.1-0.7-0.2-1.4-0.3-2l-390.2-9C21.8,550.9,21.9,551.5,22,552.2"/>
				<path fill="#735A3F" d="M21.7,550.2l390.2,9c-0.1-0.7-0.2-1.5-0.3-2.2l-390.2-9C21.5,548.7,21.6,549.4,21.7,550.2"/>
				<path fill="#6F573D" d="M21.4,548l390.2,9c-0.1-0.8-0.3-1.7-0.4-2.4l-390.2-9C21.1,546.4,21.3,547.2,21.4,548"/>
				<path fill="#6B543B" d="M21,545.6l390.2,9c-0.2-1-0.4-2-0.7-2.9l-390.2-9C20.5,543.6,20.8,544.5,21,545.6"/>
				<path fill="#675139" d="M20.3,542.7l390.2,9c-1.4-5.6-3.3-9.4-5.6-10.6c-0.5-0.3-1-0.4-1.5-0.4l-390.2-9c0.5,0,1,0.2,1.5,0.4
					C17,533.3,18.9,537.1,20.3,542.7"/>
			</g>
		</g>
		<g enable-background="new    ">
			<defs>
				<path id="SVGID_19_" enable-background="new    " d="M13.2,532.6c130.1,3,260.1,6,390.2,9c0.5,0,1,0.2,1.5,0.4
					c4,2.3,7,12.8,7.7,27.4c0.4,8.3-0.3,16.9-1.9,23.6c-1.3,5.4-3,8.6-4.5,8.9c-0.1,0-0.2,0-0.3,0l-390.2-9c0.1,0,0.2,0,0.3,0
					c1.5-0.3,3.2-3.5,4.5-8.9c1.6-6.7,2.3-15.2,1.9-23.6c-0.7-14.7-3.7-25.2-7.7-27.4C14.2,532.8,13.7,532.6,13.2,532.6z"/>
			</defs>
			<clipPath id="SVGID_20_">
				<use xlink:href="#SVGID_19_"  overflow="visible"/>
			</clipPath>
			<g clip-path="url(#SVGID_20_)" enable-background="new    ">
				<path fill="#675139" d="M13.2,532.6l390.2,9c0.5,0,1,0.2,1.5,0.4c2.2,1.2,4.1,4.9,5.5,10.4l-390.2-9c-1.4-5.5-3.3-9.2-5.5-10.4
					C14.2,532.8,13.7,532.6,13.2,532.6"/>
				<path fill="#6B543B" d="M20.2,543.4l390.2,9c0.2,0.9,0.4,1.8,0.6,2.8l-390.2-9C20.6,545.3,20.4,544.3,20.2,543.4"/>
				<path fill="#6F573D" d="M20.8,546.3l390.2,9c0.2,0.8,0.3,1.6,0.4,2.4l-390.2-9C21.1,547.8,21,547,20.8,546.3"/>
				<path fill="#735A3F" d="M21.2,548.7l390.2,9c0.1,0.7,0.2,1.4,0.3,2.1l-390.2-9C21.5,550.1,21.3,549.4,21.2,548.7"/>
				<path fill="#775E41" d="M21.6,550.8l390.2,9c0.1,0.6,0.2,1.3,0.3,2l-390.2-9C21.7,552.1,21.6,551.4,21.6,550.8"/>
				<path fill="#7B6144" d="M21.8,552.8l390.2,9c0.1,0.6,0.1,1.3,0.2,1.9l-390.2-9C21.9,554,21.9,553.4,21.8,552.8"/>
				<path fill="#7F6446" d="M22,554.7l390.2,9c0.1,0.6,0.1,1.2,0.2,1.9l-390.2-9C22.1,555.9,22.1,555.3,22,554.7"/>
				<path fill="#836748" d="M22.2,556.6l390.2,9c0.1,0.6,0.1,1.2,0.1,1.9l-390.2-9C22.3,557.8,22.2,557.2,22.2,556.6"/>
				<path fill="#876A4A" d="M22.3,558.4l390.2,9c0,0.6,0.1,1.2,0.1,1.9l-390.2-9C22.4,559.7,22.4,559,22.3,558.4"/>
				<path fill="#8B6D4C" d="M22.4,560.3l390.2,9c0,0.1,0,0.1,0,0.2c0,0.4,0,0.8,0.1,1.2l-390.2-9c0-0.4,0-0.8-0.1-1.2
					C22.4,560.4,22.4,560.3,22.4,560.3"/>
				<path fill="#8F704E" d="M22.5,561.7l390.2,9c0,0.4,0,0.9,0,1.3l-390.2-9C22.5,562.6,22.5,562.1,22.5,561.7"/>
				<path fill="#937351" d="M22.5,563l390.2,9c0,0.5,0,0.9,0,1.4l-390.2-9C22.6,563.9,22.5,563.5,22.5,563"/>
				<path fill="#967753" d="M22.6,564.4l390.2,9c0,0.5,0,1,0,1.4l-390.2-9C22.6,565.4,22.6,564.9,22.6,564.4"/>
				<path fill="#9A7A55" d="M22.6,565.9l390.2,9c0,0.5,0,1,0,1.6l-390.2-9C22.6,566.9,22.6,566.4,22.6,565.9"/>
				<path fill="#9E7D57" d="M22.5,567.4l390.2,9c0,0.6,0,1.2-0.1,1.7l-390.2-9C22.5,568.6,22.5,568,22.5,567.4"/>
				<path fill="#A28059" d="M22.5,569.2l390.2,9c0,0.7-0.1,1.5-0.1,2.2l-390.2-9C22.4,570.6,22.5,569.9,22.5,569.2"/>
				<path fill="#A6835C" d="M22.4,571.4l390.2,9c-0.1,1.4-0.2,2.9-0.4,4.3l-390.2-9C22.2,574.2,22.3,572.8,22.4,571.4"/>
				<path fill="#AA865E" d="M22,575.6l390.2,9c-0.1,0.7-0.2,1.4-0.3,2.1l-390.2-9C21.8,577,21.9,576.3,22,575.6"/>
				<path fill="#A6835C" d="M21.8,577.7l390.2,9c-0.2,1.4-0.4,2.9-0.7,4.2l-390.2-9C21.3,580.5,21.6,579.1,21.8,577.7"/>
				<path fill="#A28059" d="M21.1,581.9l390.2,9c-0.1,0.7-0.3,1.4-0.5,2.1c0,0,0,0,0,0l-390.2-9c0,0,0,0,0,0
					C20.8,583.3,20.9,582.6,21.1,581.9"/>
				<path fill="#9E7D57" d="M20.6,584.1l390.2,9c-0.1,0.6-0.3,1.2-0.4,1.7l-390.2-9C20.3,585.2,20.4,584.6,20.6,584.1"/>
				<path fill="#9A7A55" d="M20.1,585.8l390.2,9c-0.1,0.5-0.3,1-0.4,1.4l-390.2-9C19.9,586.7,20,586.2,20.1,585.8"/>
				<path fill="#967753" d="M19.7,587.2l390.2,9c-0.1,0.4-0.3,0.8-0.4,1.2l-390.2-9C19.4,588,19.6,587.6,19.7,587.2"/>
				<path fill="#937351" d="M19.3,588.3l390.2,9c-0.1,0.4-0.3,0.7-0.4,1l-390.2-9C19,589,19.2,588.7,19.3,588.3"/>
				<path fill="#8F704E" d="M18.9,589.3l390.2,9c-0.1,0.3-0.3,0.6-0.4,0.9l-390.2-9C18.7,589.9,18.8,589.6,18.9,589.3"/>
				<path fill="#8B6D4C" d="M18.5,590.2l390.2,9c-0.1,0.3-0.3,0.5-0.4,0.7l-390.2-9C18.3,590.7,18.4,590.4,18.5,590.2"/>
				<path fill="#876A4A" d="M18.1,590.9l390.2,9c-0.1,0.2-0.3,0.4-0.4,0.6l-390.2-9C17.9,591.3,18,591.1,18.1,590.9"/>
				<path fill="#836748" d="M17.8,591.5l390.2,9c-0.1,0.2-0.3,0.4-0.4,0.5l-390.2-9C17.5,591.9,17.6,591.7,17.8,591.5"/>
				<path fill="#7F6446" d="M17.4,592l390.2,9c-0.1,0.1-0.2,0.3-0.4,0.4l-390.2-9C17.1,592.3,17.3,592.2,17.4,592"/>
				<path fill="#7B6144" d="M17,592.4l390.2,9c-0.1,0.1-0.2,0.2-0.4,0.3l-390.2-9C16.8,592.6,16.9,592.5,17,592.4"/>
				<path fill="#775E41" d="M16.6,592.7l390.2,9c-0.1,0.1-0.3,0.1-0.4,0.2l-390.2-9C16.4,592.9,16.5,592.8,16.6,592.7"/>
				<path fill="#735A3F" d="M16.3,592.9l390.2,9c0,0-0.1,0-0.1,0c-0.1,0-0.2,0-0.2,0l-390.2-9c0.1,0,0.2,0,0.2,0
					C16.2,592.9,16.2,592.9,16.3,592.9"/>
				<path fill="#6F573D" d="M15.9,593l390.2,9c0,0,0,0,0,0L15.9,593c0,0,0.1,0,0.1,0"/>
			</g>
		</g>
		<g enable-background="new    ">
			<defs>
				<path id="SVGID_21_" enable-background="new    " d="M15.8,593c-0.5,0-0.9-0.3-1.4-1c-1-1.5-2.2-5.7-2.3-16.5l390.2,9
					c0.1,10.9,1.3,15,2.3,16.5c0.4,0.6,0.9,1,1.4,1C289,599.3,132.9,595.7,15.8,593z"/>
			</defs>
			<clipPath id="SVGID_22_">
				<use xlink:href="#SVGID_21_"  overflow="visible"/>
			</clipPath>
			<g clip-path="url(#SVGID_22_)" enable-background="new    ">
				<path fill="#675139" d="M15.8,593l390.2,9c-0.5,0-0.9-0.3-1.4-1c-0.4-0.6-0.7-1.4-1.1-2.8l-390.2-9c0.4,1.4,0.7,2.3,1.1,2.8
					C14.9,592.6,15.4,593,15.8,593"/>
				<path fill="#6B543B" d="M13.4,589.2l390.2,9c-0.1-0.3-0.2-0.7-0.3-1.1l-390.2-9C13.2,588.4,13.3,588.8,13.4,589.2"/>
				<path fill="#6F573D" d="M13.1,588l390.2,9c-0.1-0.3-0.1-0.7-0.2-1L13,587C13,587.4,13.1,587.7,13.1,588"/>
				<path fill="#735A3F" d="M13,587l390.2,9c-0.1-0.3-0.1-0.6-0.1-1l-390.2-9C12.9,586.4,12.9,586.7,13,587"/>
				<path fill="#775E41" d="M12.8,586l390.2,9c0-0.3-0.1-0.6-0.1-1l-390.2-9C12.7,585.4,12.8,585.7,12.8,586"/>
				<path fill="#7B6144" d="M12.7,585l390.2,9c0-0.3-0.1-0.7-0.1-1l-390.2-9C12.6,584.3,12.6,584.7,12.7,585"/>
				<path fill="#7F6446" d="M12.6,584l390.2,9c0-0.4-0.1-0.7-0.1-1.1l-390.2-9C12.5,583.3,12.5,583.6,12.6,584"/>
				<path fill="#836748" d="M12.5,582.9l390.2,9c0-0.4-0.1-0.8-0.1-1.2l-390.2-9C12.4,582.1,12.4,582.5,12.5,582.9"/>
				<path fill="#876A4A" d="M12.4,581.7l390.2,9c0-0.4-0.1-0.8-0.1-1.3l-390.2-9C12.3,580.9,12.4,581.3,12.4,581.7"/>
				<path fill="#8B6D4C" d="M12.3,580.4l390.2,9c0-0.5,0-1-0.1-1.5l-390.2-9C12.3,579.5,12.3,579.9,12.3,580.4"/>
				<path fill="#8F704E" d="M12.2,579l390.2,9c0-0.5,0-1.1-0.1-1.7l-390.2-9C12.2,577.9,12.2,578.4,12.2,579"/>
				<path fill="#937351" d="M12.2,577.3l390.2,9c0-0.6,0-1.2,0-1.8l-390.2-9C12.2,576.1,12.2,576.7,12.2,577.3"/>
			</g>
		</g>
		<g enable-background="new    ">
			<defs>
				<path id="SVGID_23_" enable-background="new    " d="M406,603c-130.1-3-260.1-6-390.2-9c-0.5,0-1-0.3-1.4-1
					c-1.1-1.6-2.3-6-2.2-17.5l390.2,9c-0.1,11.5,1.2,15.9,2.2,17.5C405,602.7,405.5,603,406,603z"/>
			</defs>
			<clipPath id="SVGID_24_">
				<use xlink:href="#SVGID_23_"  overflow="visible"/>
			</clipPath>
			<g clip-path="url(#SVGID_24_)" enable-background="new    ">
				<path fill="#9A7A55" d="M12.2,575.5l390.2,9c0,0.2,0,0.3,0,0.5l-390.2-9C12.2,575.8,12.2,575.6,12.2,575.5"/>
				<path fill="#967753" d="M12.2,575.9l390.2,9c0,0.7,0,1.3,0,2l-390.2-9C12.2,577.3,12.2,576.6,12.2,575.9"/>
				<path fill="#937351" d="M12.2,577.9l390.2,9c0,0.6,0,1.1,0,1.6l-390.2-9C12.2,579,12.2,578.5,12.2,577.9"/>
				<path fill="#8F704E" d="M12.2,579.5l390.2,9c0,0.5,0,0.9,0,1.4l-390.2-9C12.2,580.5,12.2,580,12.2,579.5"/>
				<path fill="#8B6D4C" d="M12.2,580.9l390.2,9c0,0.4,0,0.8,0.1,1.2l-390.2-9C12.3,581.8,12.2,581.4,12.2,580.9"/>
				<path fill="#876A4A" d="M12.3,582.2l390.2,9c0,0.4,0,0.8,0.1,1.1l-390.2-9C12.3,582.9,12.3,582.6,12.3,582.2"/>
				<path fill="#836748" d="M12.4,583.3l390.2,9c0,0.4,0,0.7,0.1,1l-390.2-9C12.4,584,12.4,583.6,12.4,583.3"/>
				<path fill="#7F6446" d="M12.4,584.3l390.2,9c0,0.3,0.1,0.7,0.1,1l-390.2-9C12.5,585,12.5,584.7,12.4,584.3"/>
				<path fill="#7B6144" d="M12.5,585.3l390.2,9c0,0.3,0.1,0.6,0.1,0.9l-390.2-9C12.6,585.9,12.5,585.6,12.5,585.3"/>
				<path fill="#775E41" d="M12.6,586.2l390.2,9c0,0.3,0.1,0.6,0.1,0.9l-390.2-9C12.7,586.8,12.6,586.5,12.6,586.2"/>
				<path fill="#735A3F" d="M12.7,587.1l390.2,9c0,0.3,0.1,0.6,0.1,0.9l-390.2-9C12.8,587.7,12.8,587.4,12.7,587.1"/>
				<path fill="#6F573D" d="M12.9,588l390.2,9c0.1,0.3,0.1,0.7,0.2,1L13,589C13,588.7,12.9,588.4,12.9,588"/>
				<path fill="#6B543B" d="M13,589l390.2,9c0.1,0.4,0.2,0.7,0.2,1.1l-390.2-9C13.2,589.7,13.1,589.4,13,589"/>
				<path fill="#675139" d="M13.3,590.1l390.2,9c0.4,1.4,0.8,2.3,1.1,2.9c0.4,0.7,0.9,1,1.4,1l-390.2-9c-0.5,0-1-0.3-1.4-1
					C14,592.4,13.6,591.5,13.3,590.1"/>
			</g>
		</g>
		<g enable-background="new    ">
			<defs>
				<path id="SVGID_25_" enable-background="new    " d="M403.4,541.7c-0.2,0-0.4,0-0.6,0.1c-3.4,0.7-6.4,7.6-8.2,18.8
					c-2.1,13.2-2.5,28.4-1.1,42.6c2,20.4,7.3,35.2,12.6,35.1l-390.2-9c-5.3,0-10.6-14.8-12.6-35.1c-1.4-14.2-1-29.3,1.1-42.6
					c1.8-11.2,4.9-18,8.2-18.8c0.2,0,0.4-0.1,0.6-0.1C143.3,535.6,273.3,538.6,403.4,541.7z"/>
			</defs>
			<clipPath id="SVGID_26_">
				<use xlink:href="#SVGID_25_"  overflow="visible"/>
			</clipPath>
			<g clip-path="url(#SVGID_26_)" enable-background="new    ">
				<path fill="#675139" d="M15.9,629.1l390.2,9c-3.5,0-7-6.4-9.5-16.5l-390.2-9C8.9,622.8,12.4,629.1,15.9,629.1"/>
				<path fill="#6B543B" d="M6.4,612.6l390.2,9c-0.4-1.6-0.8-3.2-1.1-5l-390.2-9C5.6,609.4,6,611,6.4,612.6"/>
				<path fill="#6F573D" d="M5.2,607.6l390.2,9c-0.3-1.3-0.5-2.6-0.7-4l-390.2-9C4.7,605,5,606.3,5.2,607.6"/>
				<path fill="#735A3F" d="M4.5,603.6l390.2,9c-0.2-1.2-0.4-2.3-0.5-3.5L4,600.1C4.1,601.3,4.3,602.5,4.5,603.6"/>
				<path fill="#775E41" d="M4,600.1l390.2,9c-0.1-1-0.3-2.1-0.4-3.2l-390.2-9C3.7,598,3.8,599,4,600.1"/>
				<path fill="#7B6144" d="M3.6,596.9l390.2,9c-0.1-1-0.2-1.9-0.3-2.9c0,0,0,0,0,0L3.3,594c0,0,0,0,0,0
					C3.4,595,3.5,595.9,3.6,596.9"/>
				<path fill="#7F6446" d="M3.3,594l390.2,9c-0.1-0.9-0.2-1.8-0.2-2.7L3,591.2C3.1,592.1,3.2,593.1,3.3,594"/>
				<path fill="#836748" d="M3,591.2l390.2,9c-0.1-0.9-0.1-1.7-0.2-2.6l-390.2-9C2.9,589.5,2.9,590.4,3,591.2"/>
				<path fill="#876A4A" d="M2.8,588.6l390.2,9c-0.1-0.8-0.1-1.7-0.1-2.5l-390.2-9C2.7,587,2.8,587.8,2.8,588.6"/>
				<path fill="#8B6D4C" d="M2.7,586.1l390.2,9c0-0.8-0.1-1.6-0.1-2.5l-390.2-9C2.6,584.5,2.6,585.3,2.7,586.1"/>
				<path fill="#8F704E" d="M2.6,583.7l390.2,9c0-0.8-0.1-1.6-0.1-2.5l-390.2-9C2.5,582,2.5,582.8,2.6,583.7"/>
				<path fill="#937351" d="M2.5,581.2l390.2,9c0-0.8,0-1.7,0-2.5l-390.2-9C2.4,579.5,2.5,580.4,2.5,581.2"/>
				<path fill="#967753" d="M2.4,578.7l390.2,9c0-0.9,0-1.8,0-2.6L2.4,576C2.4,576.9,2.4,577.8,2.4,578.7"/>
				<path fill="#9A7A55" d="M2.4,576l390.2,9c0-0.9,0-1.9,0-2.8l-390.2-9C2.4,574.2,2.4,575.1,2.4,576"/>
				<path fill="#9E7D57" d="M2.5,573.2l390.2,9c0-1.1,0.1-2.1,0.1-3.2l-390.2-9C2.5,571.1,2.5,572.2,2.5,573.2"/>
				<path fill="#A28059" d="M2.6,570.1l390.2,9c0.1-1.3,0.1-2.6,0.2-3.9l-390.2-9C2.7,567.4,2.6,568.7,2.6,570.1"/>
				<path fill="#A6835C" d="M2.8,566.1l390.2,9c0.2-2.6,0.4-5.2,0.7-7.8l-390.2-9C3.2,560.9,2.9,563.5,2.8,566.1"/>
				<path fill="#AA865E" d="M3.4,558.3l390.2,9c0.1-1.2,0.3-2.4,0.5-3.6l-390.2-9C3.7,555.9,3.6,557.1,3.4,558.3"/>
				<path fill="#A6835C" d="M3.9,554.7l390.2,9c0.1-1.1,0.3-2.2,0.5-3.3c0.2-1.2,0.4-2.3,0.6-3.4L5,548.1c-0.2,1.1-0.4,2.2-0.6,3.4
					C4.2,552.5,4,553.6,3.9,554.7"/>
				<path fill="#A28059" d="M5,548.1l390.2,9c0.2-1,0.4-1.9,0.6-2.8l-390.2-9C5.4,546.2,5.2,547.1,5,548.1"/>
				<path fill="#9E7D57" d="M5.6,545.3l390.2,9c0.2-0.7,0.4-1.4,0.5-2.1l-390.2-9C5.9,543.9,5.8,544.6,5.6,545.3"/>
				<path fill="#9A7A55" d="M6.1,543.2l390.2,9c0.2-0.6,0.4-1.2,0.5-1.8l-390.2-9C6.5,542,6.3,542.6,6.1,543.2"/>
				<path fill="#967753" d="M6.7,541.4l390.2,9c0.2-0.5,0.3-1,0.5-1.5l-390.2-9C7,540.4,6.8,540.9,6.7,541.4"/>
				<path fill="#937351" d="M7.2,539.9l390.2,9c0.2-0.5,0.4-0.9,0.5-1.4l-390.2-9C7.5,539,7.4,539.4,7.2,539.9"/>
				<path fill="#8F704E" d="M7.7,538.5l390.2,9c0.2-0.4,0.4-0.8,0.5-1.2l-390.2-9C8.1,537.7,7.9,538.1,7.7,538.5"/>
				<path fill="#8B6D4C" d="M8.3,537.3l390.2,9c0.2-0.4,0.4-0.7,0.6-1.1l-390.2-9C8.7,536.6,8.5,536.9,8.3,537.3"/>
				<path fill="#876A4A" d="M8.8,536.2l390.2,9c0.2-0.3,0.4-0.7,0.6-1l-390.2-9C9.2,535.6,9,535.9,8.8,536.2"/>
				<path fill="#836748" d="M9.4,535.3l390.2,9c0.2-0.3,0.4-0.6,0.6-0.8l-390.2-9C9.9,534.7,9.7,535,9.4,535.3"/>
				<path fill="#7F6446" d="M10.1,534.4l390.2,9c0.2-0.3,0.4-0.5,0.7-0.7l-390.2-9C10.5,533.9,10.3,534.2,10.1,534.4"/>
				<path fill="#7B6144" d="M10.7,533.7l390.2,9c0.2-0.2,0.5-0.4,0.7-0.6l-390.2-9C11.2,533.3,11,533.5,10.7,533.7"/>
				<path fill="#775E41" d="M11.5,533.1l390.2,9c0.3-0.2,0.5-0.3,0.8-0.4l-390.2-9C12,532.9,11.7,533,11.5,533.1"/>
				<path fill="#735A3F" d="M12.3,532.8l390.2,9c0.1,0,0.2-0.1,0.3-0.1c0.2,0,0.4-0.1,0.6-0.1l-390.2-9c-0.2,0-0.4,0-0.6,0.1
					C12.5,532.7,12.4,532.7,12.3,532.8"/>
				<path fill="#6F573D" d="M13.2,533l390.2,9c0,0,0.1,0,0.1,0L13.2,533c0.1,0-0.2,0-0.2,0"/>
			</g>
		</g>
		<g enable-background="new    ">
			<defs>
				<path id="SVGID_27_" enable-background="new    " d="M13.3,531.6c130.1,3,260.1,6,390.2,9c-0.2,0-0.4,0-0.7,0.1
					c-3.4,0.7-6.6,7.8-8.4,19.2c-2.2,13.6-2.6,29-1.1,43.6c2,20.7,7.4,35.7,12.8,35.6l-390.2-9c-5.4,0-10.7-15-12.8-35.6
					c-1.4-14.5-1-30,1.1-43.6c1.8-11.5,5-18.5,8.4-19.2C12.8,531.6,13,531.6,13.3,531.6z"/>
			</defs>
			<clipPath id="SVGID_28_">
				<use xlink:href="#SVGID_27_"  overflow="visible"/>
			</clipPath>
			<g clip-path="url(#SVGID_28_)" enable-background="new    ">
				<path fill="#6F573D" d="M13.3,532l390.2,9c0,0-0.1,0-0.1,0L13.3,532c-0.1,0-0.3,0-0.3,0"/>
				<path fill="#735A3F" d="M13.2,531.6l390.2,9c-0.2,0-0.4,0-0.6,0.1c-0.1,0-0.2,0.1-0.3,0.1l-390.2-9c0.1,0,0.2-0.1,0.3-0.1
					C12.8,531.6,13,531.6,13.2,531.6"/>
				<path fill="#775E41" d="M12.3,531.8l390.2,9c-0.3,0.1-0.5,0.2-0.8,0.4l-390.2-9C11.7,532,12,531.9,12.3,531.8"/>
				<path fill="#7B6144" d="M11.5,532.2l390.2,9c-0.2,0.2-0.5,0.4-0.7,0.6l-390.2-9C11,532.5,11.2,532.3,11.5,532.2"/>
				<path fill="#7F6446" d="M10.7,532.7l390.2,9c-0.2,0.2-0.5,0.5-0.7,0.7l-390.2-9C10.3,533.2,10.5,533,10.7,532.7"/>
				<path fill="#836748" d="M10,533.5l390.2,9c-0.2,0.3-0.4,0.5-0.6,0.9l-390.2-9C9.6,534,9.8,533.7,10,533.5"/>
				<path fill="#876A4A" d="M9.4,534.3l390.2,9c-0.2,0.3-0.4,0.6-0.6,1l-390.2-9C9,535,9.2,534.6,9.4,534.3"/>
				<path fill="#8B6D4C" d="M8.8,535.3l390.2,9c-0.2,0.3-0.4,0.7-0.6,1.1l-390.2-9C8.4,536,8.6,535.7,8.8,535.3"/>
				<path fill="#8F704E" d="M8.2,536.4l390.2,9c-0.2,0.4-0.4,0.8-0.6,1.2l-390.2-9C7.8,537.2,8,536.8,8.2,536.4"/>
				<path fill="#937351" d="M7.6,537.7l390.2,9c-0.2,0.4-0.4,0.9-0.5,1.4l-390.2-9C7.3,538.6,7.4,538.1,7.6,537.7"/>
				<path fill="#967753" d="M7.1,539.1l390.2,9c-0.2,0.5-0.4,1-0.5,1.6l-390.2-9C6.7,540.1,6.9,539.6,7.1,539.1"/>
				<path fill="#9A7A55" d="M6.5,540.6l390.2,9c-0.2,0.6-0.4,1.2-0.5,1.8L6,542.4C6.2,541.8,6.4,541.2,6.5,540.6"/>
				<path fill="#9E7D57" d="M6,542.4l390.2,9c-0.2,0.7-0.4,1.4-0.6,2.2l-390.2-9C5.6,543.8,5.8,543.1,6,542.4"/>
				<path fill="#A28059" d="M5.4,544.6l390.2,9c-0.2,0.9-0.4,1.9-0.6,2.9l-390.2-9C5,546.4,5.2,545.5,5.4,544.6"/>
				<path fill="#A6835C" d="M4.8,547.4l390.2,9c-0.2,1.1-0.4,2.3-0.6,3.5c-0.2,1.1-0.3,2.2-0.5,3.3l-390.2-9
					c0.2-1.1,0.3-2.2,0.5-3.3C4.4,549.7,4.6,548.5,4.8,547.4"/>
				<path fill="#AA865E" d="M3.7,554.2l390.2,9c-0.2,1.2-0.3,2.5-0.5,3.7L3.2,558C3.4,556.7,3.5,555.5,3.7,554.2"/>
				<path fill="#A6835C" d="M3.2,558l390.2,9c-0.3,2.6-0.5,5.3-0.7,8l-390.2-9C2.7,563.2,2.9,560.6,3.2,558"/>
				<path fill="#A28059" d="M2.6,565.9l390.2,9c-0.1,1.3-0.2,2.7-0.2,4L2.3,570C2.4,568.6,2.5,567.3,2.6,565.9"/>
				<path fill="#9E7D57" d="M2.3,570l390.2,9c0,1.1-0.1,2.2-0.1,3.2l-390.2-9C2.3,572.1,2.3,571.1,2.3,570"/>
				<path fill="#9A7A55" d="M2.2,573.2l390.2,9c0,1,0,1.9,0,2.9l-390.2-9C2.2,575.1,2.2,574.2,2.2,573.2"/>
				<path fill="#967753" d="M2.2,576.1l390.2,9c0,0.9,0,1.8,0,2.7l-390.2-9C2.2,577.9,2.2,577,2.2,576.1"/>
				<path fill="#937351" d="M2.2,578.8l390.2,9c0,0.9,0,1.7,0,2.6l-390.2-9C2.2,580.5,2.2,579.7,2.2,578.8"/>
				<path fill="#8F704E" d="M2.3,581.4l390.2,9c0,0.8,0,1.7,0.1,2.5l-390.2-9C2.3,583.1,2.3,582.2,2.3,581.4"/>
				<path fill="#8B6D4C" d="M2.3,583.9l390.2,9c0,0.8,0.1,1.7,0.1,2.5l-390.2-9C2.4,585.6,2.4,584.7,2.3,583.9"/>
				<path fill="#876A4A" d="M2.4,586.4l390.2,9c0,0.9,0.1,1.7,0.2,2.6L2.6,589C2.5,588.1,2.5,587.3,2.4,586.4"/>
				<path fill="#836748" d="M2.6,589l390.2,9c0.1,0.9,0.1,1.8,0.2,2.7l-390.2-9C2.7,590.8,2.7,589.9,2.6,589"/>
				<path fill="#7F6446" d="M2.8,591.7l390.2,9c0.1,0.9,0.2,1.9,0.3,2.8l-390.2-9C3,593.5,2.9,592.6,2.8,591.7"/>
				<path fill="#7B6144" d="M3.1,594.5l390.2,9c0,0,0,0,0,0c0.1,1,0.2,2,0.3,3l-390.2-9C3.3,596.5,3.2,595.5,3.1,594.5
					C3.1,594.5,3.1,594.5,3.1,594.5"/>
				<path fill="#775E41" d="M3.4,597.4l390.2,9c0.1,1.1,0.3,2.2,0.4,3.2l-390.2-9C3.6,599.6,3.5,598.5,3.4,597.4"/>
				<path fill="#735A3F" d="M3.8,600.7l390.2,9c0.2,1.2,0.4,2.4,0.5,3.6l-390.2-9C4.1,603.1,4,601.9,3.8,600.7"/>
				<path fill="#6F573D" d="M4.3,604.3l390.2,9c0.2,1.4,0.5,2.8,0.7,4.1l-390.2-9C4.8,607,4.6,605.7,4.3,604.3"/>
				<path fill="#6B543B" d="M5.1,608.3l390.2,9c0.4,1.8,0.7,3.4,1.1,5l-390.2-9C5.8,611.8,5.4,610.1,5.1,608.3"/>
				<path fill="#675139" d="M6.2,613.4l390.2,9c2.6,10.3,6.1,16.8,9.6,16.7l-390.2-9C12.3,630.1,8.8,623.7,6.2,613.4"/>
			</g>
		</g>
	</g>
</g>
<text transform="matrix(1.2223 0 0 1 40 112)" fill="#FF0000" font-family="'BrushScriptMT'" font-size="40" id="NameText">Name</text>
<g id="Button">
	<g>
		<path fill-rule="evenodd" clip-rule="evenodd" d="M340.7,533c-1.3-1.3-2.1-2.8-2.6-4.4c-0.3-1-0.5-2.1-0.2-3.1
			c0.4-1.4,1.4-2.2,3.1-2.5c1.6-0.3,3.1-0.7,4.4-1.4c1.8-1,2.7-2.5,2.9-4.2c0-0.4,0-0.8,0.1-1.2c-0.3,0-0.6,0-0.9-0.1
			c-1.1-0.2-1.9-0.8-2.3-1.6c-0.2-0.5-0.4-1-0.5-1.5c-0.2-0.9,0.3-1.6,1.2-2.1c0.2-0.1,0.3-0.2,0.4-0.4c0.4-0.5,1.4-0.8,2.2-0.6
			c0.1,0,0.2,0.1,0.4,0c-0.3-0.2-0.5-0.4-0.8-0.6c0,0,0.1-0.1,0.1-0.1c0.4,0.3,0.8,0.6,1.2,0.9c-0.5-0.8-1.1-1.4-1.9-2
			c0.7,0.4,1.3,0.9,1.8,1.5c-0.1-0.2-0.1-0.4-0.2-0.7c0,0,0,0,0,0c0.2,0.3,0.5,0.6,0.7,0.9c0,0,0,0,0.1,0c0-0.1-0.1-0.2-0.1-0.2
			c-0.9-1.4-1.3-2.8-1.3-4.4c0-1.8-0.1-3.6,0-5.4c0.1-1.5,0.4-3,0.6-4.5c0,0,0.1,0,0.1,0c0.4,0.9,0.9,1.8,1.3,2.7c0,0,0.1,0,0.1,0
			c-0.3-1-0.5-1.9-0.8-2.9c-0.1-0.3-0.1-0.5-0.2-0.8c-0.3-0.7,0-1.3,0.1-2c0.6-2.8,1.1-5.6,1.7-8.4c0-0.1,0-0.2,0.1-0.3
			c0.2,2,1.1,3.8,2.7,5.4c-0.1-0.2-0.3-0.4-0.4-0.7c-0.2-0.5-0.4-1.1-0.6-1.6c-0.7-1.3-0.9-2.7-0.7-4.1c0-0.3,0.2-0.6,0.5-0.8
			c0.5-0.3,0.7-0.7,0.6-1.2c-0.1-0.8,0.1-1.7,0.5-2.4c0.6-1.2,1.4-2.4,2.1-3.5c1.5-2.7,3.8-5,5.9-7.4c0.9-1,1.8-2,2.8-3
			c0,0,0.1-0.1,0.1-0.1c-0.3,0.7-0.3,1.3,0.2,1.9c0.1-1.2,0.7-2.3,1.4-3.3c0.7-1,1.6-1.9,2.8-2.6c-0.1,0.3-0.2,0.6-0.2,0.8
			c0.8-1.4,2.2-2.4,3.6-3.4c3.5-2.3,7.3-4.3,11.4-5.8c0.8-0.3,1.7-0.4,2.6-0.6c0.1,0,0.3,0,0.6,0c-0.2,0.2-0.3,0.3-0.4,0.5
			c-0.9,0.9-1.8,1.8-2.6,2.7c-1.2,1.4-2.2,2.9-3.1,4.4c-0.1,0.2-0.3,0.4-0.5,0.6c-0.9,0.7-1.8,1.4-2.7,2.1c-0.1,0.1-0.3,0.2-0.3,0.4
			c0.9-0.6,1.9-1.1,2.8-1.7c0,0.1,0,0.1,0,0.1c-1.1,2-1.8,4.2-2.6,6.3c-1.1,3-2.6,5.9-4.3,8.7c-0.6,1.1-1.1,2.1-1.7,3.2
			c-0.9,1.8-2.3,3.3-4.3,4.4c0,0-0.1,0-0.1,0.1c1.7-0.6,3-1.6,4-2.9c-1,3.2-2.2,6.4-3.7,9.5c0.2-0.2,0.4-0.3,0.6-0.5
			c0,0.1,0,0.1,0,0.1c-0.7,1.9-1.4,3.8-2.1,5.7c-0.7,1.8-1.5,3.6-2.6,5.2c-1,1.5-2.4,2.9-4.1,3.9c-1.2,0.7-2.5,1.4-3.7,2.1
			c-0.4,0.2-0.7,0.5-1.1,0.7c0.5-0.2,1-0.5,1.4-0.7c0,0,0,0,0,0.1c-0.1,0.1-0.2,0.1-0.3,0.2c-0.9,0.6-1.6,1.4-2.3,2.2
			c-0.1,0.1-0.1,0.2-0.2,0.4c0.2,0,0.3,0,0.4,0c0.4,0,0.8,0,1.2,0.1c0.8,0.2,1.2,0.8,1.1,1.5c0,0.1,0,0.3,0.1,0.4
			c0.6,1,0.5,2-0.4,2.9c-0.3,0.3-0.8,0.4-1.2,0.7c0.2,0.6-0.1,1.1-0.8,1.2c-0.2,0.1-0.3,0.1-0.3,0.3c-0.1,2.7,1.3,5,5,6.2
			c0.8,0.2,1.6,0.4,2.3,0.6c0.1,0,0.3,0,0.4,0.1c1.7,0.4,2.6,1.3,2.7,2.9c0.1,1.4-0.3,2.8-0.9,4.1c-0.5,1.1-1.2,2-2.1,3
			c0.1,0,0.1,0,0.2,0.1c0.2,0.2,0.2,0.4,0.2,0.6c-0.1,0.2-0.3,0.3-0.6,0.3c-2.9,0.3-5.7,0.4-8.6,0.4c-2.2,0-4.4,0-6.6-0.1
			c-1.6-0.1-3.2-0.2-4.8-0.4C340.4,534.1,340.2,533.6,340.7,533C340.6,533.1,340.6,533.1,340.7,533z M355.5,511.9
			c0.3,0.3,0.6,0.6,1,0.9c0.3-0.5,0.3-0.9-0.1-1.3C356.1,511.6,355.8,511.7,355.5,511.9c0,0,0-0.1,0.1-0.1c0.6-0.3,0.6-0.8,0-1
			c-0.3-0.1-0.6-0.2-1-0.2c-0.7-0.1-1.6,0.4-1.8,1c0.2,0,0.5,0.2,0.7,0.1C354.2,511.5,354.9,511.6,355.5,511.9z M348,514.2
			c-0.7-0.3-1-0.8-1-1.4c0-0.1,0-0.2,0-0.4c0.3-0.4,0.6-0.7,1-1.1c-0.5,0.2-1,0.4-1.6,0.6c0.2,0.2,0.4,0.4,0.5,0.5
			c-0.2-0.1-0.4-0.3-0.6-0.4c-0.5,0.3-0.8,0.7-1,1.2c-0.2,0.5,0,1,0.2,1.4c0.4,0.9,1.7,1.6,2.8,1.5c-0.7-0.1-1.2-0.3-1.2-1
			c0-0.5,0.5-0.7,1-0.8C348.1,514.2,348,514.2,348,514.2c0.6,0.3,1.2,0.1,1.9,0.2c0.1-0.5,0.3-0.9,0.4-1.4c0-0.1,0-0.1-0.1-0.2
			c-0.4-0.4-0.9-0.6-1.5-0.6c-0.6,0-1.4,0.6-1.2,1.3c-0.2-0.3-0.2-0.3-0.1-0.9c-0.1,0-0.2,0.1-0.2,0.2c0.1,0.3,0.1,0.6,0.3,0.9
			C347.5,513.8,347.8,514,348,514.2z M352.1,509.4c0-0.1,0.1-0.2,0.1-0.4c0.8-2.8,1.6-5.5,2.4-8.3c1.6-5.3,3.4-10.7,5.8-15.8
			c0.9-1.9,1.8-3.9,2.8-5.7c1.2-2.3,2.6-4.6,3.9-6.8c0-0.1,0.1-0.2,0.1-0.3c0,0-0.1,0-0.1,0c-0.1,0.1-0.2,0.1-0.2,0.2
			c-2,3.1-3.8,6.3-5.4,9.5c-1.6,3.2-3,6.5-4.2,9.8c-0.1,0.3-0.1,0.6-0.7,0.4c0.1,0.2,0.1,0.4,0.2,0.5c0,0,0.1,0,0.1,0
			c-2.1,5.6-3.7,11.2-5.3,16.9C351.8,509.4,351.9,509.4,352.1,509.4z M355.4,513.7C355.4,513.7,355.4,513.7,355.4,513.7
			c0-0.1,0.1-0.1,0.1-0.2c1-0.5,0.9-0.6,0.2-1.3c-0.1-0.1-0.2-0.2-0.3-0.2c-0.5-0.3-1-0.4-1.7-0.3c0.4,0.3,0.6,0.6,0.5,1
			c0-0.3-0.1-0.7-0.5-0.9c-0.1,0-0.2-0.1-0.3-0.1c-0.6,0.1-0.9,0.4-1,0.8c-0.1,0.5-0.3,1-0.4,1.6c0.6,0,1.1,0,1.7,0
			c0.3,0,0.6,0,0.8,0.2c0.4,0.3,0.7,0.1,1-0.1c0.2-0.1,0.4-0.3,0.6-0.4c0.3-0.2,0.3-0.5,0.2-0.8C356,513.4,355.7,513.6,355.4,513.7z
			 M349.2,511c-0.8-0.3-1.6-0.4-2.4-0.2c-0.6,0.1-0.7,0.3-0.4,0.9C347.2,511.1,348.2,511,349.2,511z M346.1,511.1
			c-1,0.4-1.5,1.5-1.1,2.3c0.1-0.7,0.5-1.2,1.1-1.6c0,0,0.1-0.1,0.1-0.2C346.2,511.4,346.1,511.3,346.1,511.1z M350.4,512.4
			c-0.1-0.1-0.1-0.2-0.2-0.2c-0.5-0.3-1-0.5-1.5-0.7c-0.1,0-0.3-0.1-0.4,0c-0.5,0.2-1,0.6-1.1,1.1c0.1,0,0.2,0,0.3-0.1
			c0.5-0.5,1.1-0.6,1.8-0.4C349.7,512,350,512.2,350.4,512.4z M353.8,509.7c0.4,0,0.8-0.1,1.1,0c0.3,0.1,0.7,0.2,1,0.4
			c0.2,0.2,0.4,0.5,0.6,0.8c0.1-0.6-0.1-1-0.6-1.3C355.3,509.3,354.4,509.4,353.8,509.7z M346.6,510.6c1-0.3,1.9-0.4,2.9,0
			C348.8,509.9,347.2,509.9,346.6,510.6z M355.1,510.4c-0.5-0.2-1-0.4-1.6-0.2c-0.5,0.2-0.6,0.4-0.6,0.7
			C353.6,510.3,354.3,510.2,355.1,510.4z M356.8,512.6c0,0-0.1,0-0.1,0c-0.1,0.3-0.2,0.6-0.2,0.9c0.1,0,0.1,0,0.2,0
			C356.7,513.1,356.8,512.8,356.8,512.6z M350,511.5c-0.1-0.2-0.3-0.4-0.7-0.3C349.6,511.3,349.8,511.4,350,511.5z"/>
	</g>
	<line fill="none" stroke="#000000" stroke-width="6" stroke-miterlimit="10" x1="62.3" y1="520.3" x2="312.3" y2="524.2"/>
	<text transform="matrix(1.2223 0 0 1 40.2119 509.4561)" fill="#FF0000" font-family="'BrushScriptMT'" font-size="72.603">x</text>
	
		<text transform="matrix(1.2221 2.115819e-02 -1.731000e-02 0.9999 92.6265 510.8203)" fill="#FF0000" font-family="'BrushScriptMT'" font-size="54.45">Purchase</text>
</g>
<text transform="matrix(1.2223 0 0 1 15 195)" font-family="'BrushScriptMT'" font-size="54.45" id="TypeText">Type: ???????</text>
<text transform="matrix(1.2223 0 0 1 30 290)" font-family="'BrushScriptMT'" font-size="54.45" id="SlotText">Slot: ???????</text>
<text transform="matrix(1.2223 0 0 1 55 385)" font-family="'BrushScriptMT'" font-size="54.45" id="ValText">Value: ??????</text>
</svg>
