<?xml version="1.0" encoding="utf-8"?>
<!-- Generator: Adobe Illustrator 16.0.4, SVG Export Plug-In . SVG Version: 6.00 Build 0)  -->
<!DOCTYPE svg PUBLIC "-//W3C//DTD SVG 1.1//EN" "http://www.w3.org/Graphics/SVG/1.1/DTD/svg11.dtd">
<svg version="1.1" id="Armory" xmlns="http://www.w3.org/2000/svg" xmlns:xlink="http://www.w3.org/1999/xlink" x="0px" y="0px"
	 width="1122px" height="783px" viewBox="0 0 1122 783" enable-background="new 0 0 1122 783" xml:space="preserve">
<rect x="-1" y="710" fill="#1A1A1A" width="1123" height="73"/>
<rect x="-1" fill="#333333" width="1123" height="710"/>
<g>
	<path fill="#4D4D4D" d="M717,685c0,7.7-6.3,14-14,14H19c-7.7,0-14-6.3-14-14V17C5,9.3,11.3,3,19,3h684c7.7,0,14,6.3,14,14V685z"/>
	<path fill="none" stroke="#000000" stroke-width="5" stroke-miterlimit="10" d="M716.5,685.5c0,7.7-6.3,14-14,14h-684
		c-7.7,0-14-6.3-14-14v-668c0-7.7,6.3-14,14-14h684c7.7,0,14,6.3,14,14V685.5z"/>
</g>
<g id="inven_x5F_slot_x5F_1">
	<path fill="#CCCCCC" d="M99,116c0,7.7-6.3,14-14,14H27c-7.7,0-14-6.3-14-14V58c0-7.7,6.3-14,14-14h58c7.7,0,14,6.3,14,14V116z"/>
	<path fill="none" stroke="#000000" stroke-width="5" stroke-miterlimit="10" d="M99.5,115.5c0,7.7-6.3,14-14,14h-58
		c-7.7,0-14-6.3-14-14v-58c0-7.7,6.3-14,14-14h58c7.7,0,14,6.3,14,14V115.5z"/>
</g>
<g id="inven_x5F_slot_x5F_2">
	<path fill="#CCCCCC" d="M201,116c0,7.7-6.3,14-14,14h-58c-7.7,0-14-6.3-14-14V58c0-7.7,6.3-14,14-14h58c7.7,0,14,6.3,14,14V116z"/>
	<path fill="none" stroke="#000000" stroke-width="5" stroke-miterlimit="10" d="M201.5,115.5c0,7.7-6.3,14-14,14h-58
		c-7.7,0-14-6.3-14-14v-58c0-7.7,6.3-14,14-14h58c7.7,0,14,6.3,14,14V115.5z"/>
</g>
<g id="inven_x5F_slot_x5F_3">
	<path fill="#CCCCCC" d="M303,116c0,7.7-6.3,14-14,14h-58c-7.7,0-14-6.3-14-14V58c0-7.7,6.3-14,14-14h58c7.7,0,14,6.3,14,14V116z"/>
	<path fill="none" stroke="#000000" stroke-width="5" stroke-miterlimit="10" d="M303.5,115.5c0,7.7-6.3,14-14,14h-58
		c-7.7,0-14-6.3-14-14v-58c0-7.7,6.3-14,14-14h58c7.7,0,14,6.3,14,14V115.5z"/>
</g>
<g id="inven_x5F_slot_x5F_4">
	<path fill="#CCCCCC" d="M404,117c0,7.7-6.3,14-14,14h-58c-7.7,0-14-6.3-14-14V59c0-7.7,6.3-14,14-14h58c7.7,0,14,6.3,14,14V117z"/>
	<path fill="none" stroke="#000000" stroke-width="5" stroke-miterlimit="10" d="M404.5,116.5c0,7.7-6.3,14-14,14h-58
		c-7.7,0-14-6.3-14-14v-58c0-7.7,6.3-14,14-14h58c7.7,0,14,6.3,14,14V116.5z"/>
</g>
<g id="inven_x5F_slot_x5F_5">
	<path fill="#CCCCCC" d="M505,117c0,7.7-6.3,14-14,14h-58c-7.7,0-14-6.3-14-14V59c0-7.7,6.3-14,14-14h58c7.7,0,14,6.3,14,14V117z"/>
	<path fill="none" stroke="#000000" stroke-width="5" stroke-miterlimit="10" d="M505.5,116.5c0,7.7-6.3,14-14,14h-58
		c-7.7,0-14-6.3-14-14v-58c0-7.7,6.3-14,14-14h58c7.7,0,14,6.3,14,14V116.5z"/>
</g>
<g id="inven_x5F_slot_x5F_6">
	<path fill="#CCCCCC" d="M605,116c0,7.7-6.3,14-14,14h-58c-7.7,0-14-6.3-14-14V58c0-7.7,6.3-14,14-14h58c7.7,0,14,6.3,14,14V116z"/>
	<path fill="none" stroke="#000000" stroke-width="5" stroke-miterlimit="10" d="M605.5,115.5c0,7.7-6.3,14-14,14h-58
		c-7.7,0-14-6.3-14-14v-58c0-7.7,6.3-14,14-14h58c7.7,0,14,6.3,14,14V115.5z"/>
</g>
<g id="inven_x5F_slot_x5F_7">
	<path fill="#CCCCCC" d="M705,116c0,7.7-6.3,14-14,14h-58c-7.7,0-14-6.3-14-14V58c0-7.7,6.3-14,14-14h58c7.7,0,14,6.3,14,14V116z"/>
	<path fill="none" stroke="#000000" stroke-width="5" stroke-miterlimit="10" d="M705.5,115.5c0,7.7-6.3,14-14,14h-58
		c-7.7,0-14-6.3-14-14v-58c0-7.7,6.3-14,14-14h58c7.7,0,14,6.3,14,14V115.5z"/>
</g>
<g id="inven_x5F_slot_x5F_8">
	<path fill="#CCCCCC" d="M100,220c0,7.7-6.3,14-14,14H28c-7.7,0-14-6.3-14-14v-58c0-7.7,6.3-14,14-14h58c7.7,0,14,6.3,14,14V220z"/>
	<path fill="none" stroke="#000000" stroke-width="5" stroke-miterlimit="10" d="M100.5,219.5c0,7.7-6.3,14-14,14h-58
		c-7.7,0-14-6.3-14-14v-58c0-7.7,6.3-14,14-14h58c7.7,0,14,6.3,14,14V219.5z"/>
</g>
<g id="inven_x5F_slot_x5F_9">
	<path fill="#CCCCCC" d="M202,220c0,7.7-6.3,14-14,14h-58c-7.7,0-14-6.3-14-14v-58c0-7.7,6.3-14,14-14h58c7.7,0,14,6.3,14,14V220z"
		/>
	<path fill="none" stroke="#000000" stroke-width="5" stroke-miterlimit="10" d="M202.5,219.5c0,7.7-6.3,14-14,14h-58
		c-7.7,0-14-6.3-14-14v-58c0-7.7,6.3-14,14-14h58c7.7,0,14,6.3,14,14V219.5z"/>
</g>
<g id="inven_x5F_slot_x5F_10">
	<path fill="#CCCCCC" d="M304,220c0,7.7-6.3,14-14,14h-58c-7.7,0-14-6.3-14-14v-58c0-7.7,6.3-14,14-14h58c7.7,0,14,6.3,14,14V220z"
		/>
	<path fill="none" stroke="#000000" stroke-width="5" stroke-miterlimit="10" d="M304.5,219.5c0,7.7-6.3,14-14,14h-58
		c-7.7,0-14-6.3-14-14v-58c0-7.7,6.3-14,14-14h58c7.7,0,14,6.3,14,14V219.5z"/>
</g>
<g id="inven_x5F_slot_x5F_11">
	<path fill="#CCCCCC" d="M405,221c0,7.7-6.3,14-14,14h-58c-7.7,0-14-6.3-14-14v-58c0-7.7,6.3-14,14-14h58c7.7,0,14,6.3,14,14V221z"
		/>
	<path fill="none" stroke="#000000" stroke-width="5" stroke-miterlimit="10" d="M405.5,220.5c0,7.7-6.3,14-14,14h-58
		c-7.7,0-14-6.3-14-14v-58c0-7.7,6.3-14,14-14h58c7.7,0,14,6.3,14,14V220.5z"/>
</g>
<g id="inven_x5F_slot_x5F_12">
	<path fill="#CCCCCC" d="M506,221c0,7.7-6.3,14-14,14h-58c-7.7,0-14-6.3-14-14v-58c0-7.7,6.3-14,14-14h58c7.7,0,14,6.3,14,14V221z"
		/>
	<path fill="none" stroke="#000000" stroke-width="5" stroke-miterlimit="10" d="M506.5,220.5c0,7.7-6.3,14-14,14h-58
		c-7.7,0-14-6.3-14-14v-58c0-7.7,6.3-14,14-14h58c7.7,0,14,6.3,14,14V220.5z"/>
</g>
<g id="inven_x5F_slot_x5F_13">
	<path fill="#CCCCCC" d="M606,220c0,7.7-6.3,14-14,14h-58c-7.7,0-14-6.3-14-14v-58c0-7.7,6.3-14,14-14h58c7.7,0,14,6.3,14,14V220z"
		/>
	<path fill="none" stroke="#000000" stroke-width="5" stroke-miterlimit="10" d="M606.5,219.5c0,7.7-6.3,14-14,14h-58
		c-7.7,0-14-6.3-14-14v-58c0-7.7,6.3-14,14-14h58c7.7,0,14,6.3,14,14V219.5z"/>
</g>
<g id="inven_x5F_slot_x5F_14">
	<path fill="#CCCCCC" d="M706,220c0,7.7-6.3,14-14,14h-58c-7.7,0-14-6.3-14-14v-58c0-7.7,6.3-14,14-14h58c7.7,0,14,6.3,14,14V220z"
		/>
	<path fill="none" stroke="#000000" stroke-width="5" stroke-miterlimit="10" d="M706.5,219.5c0,7.7-6.3,14-14,14h-58
		c-7.7,0-14-6.3-14-14v-58c0-7.7,6.3-14,14-14h58c7.7,0,14,6.3,14,14V219.5z"/>
</g>
<g id="inven_x5F_slot_x5F_15">
	<path fill="#CCCCCC" d="M100,326c0,7.7-6.3,14-14,14H28c-7.7,0-14-6.3-14-14v-58c0-7.7,6.3-14,14-14h58c7.7,0,14,6.3,14,14V326z"/>
	<path fill="none" stroke="#000000" stroke-width="5" stroke-miterlimit="10" d="M100.5,325.5c0,7.7-6.3,14-14,14h-58
		c-7.7,0-14-6.3-14-14v-58c0-7.7,6.3-14,14-14h58c7.7,0,14,6.3,14,14V325.5z"/>
</g>
<g id="inven_x5F_slot_x5F_16">
	<path fill="#CCCCCC" d="M202,326c0,7.7-6.3,14-14,14h-58c-7.7,0-14-6.3-14-14v-58c0-7.7,6.3-14,14-14h58c7.7,0,14,6.3,14,14V326z"
		/>
	<path fill="none" stroke="#000000" stroke-width="5" stroke-miterlimit="10" d="M202.5,325.5c0,7.7-6.3,14-14,14h-58
		c-7.7,0-14-6.3-14-14v-58c0-7.7,6.3-14,14-14h58c7.7,0,14,6.3,14,14V325.5z"/>
</g>
<g id="inven_x5F_slot_x5F_17">
	<path fill="#CCCCCC" d="M304,326c0,7.7-6.3,14-14,14h-58c-7.7,0-14-6.3-14-14v-58c0-7.7,6.3-14,14-14h58c7.7,0,14,6.3,14,14V326z"
		/>
	<path fill="none" stroke="#000000" stroke-width="5" stroke-miterlimit="10" d="M304.5,325.5c0,7.7-6.3,14-14,14h-58
		c-7.7,0-14-6.3-14-14v-58c0-7.7,6.3-14,14-14h58c7.7,0,14,6.3,14,14V325.5z"/>
</g>
<g id="inven_x5F_slot_x5F_18">
	<path fill="#CCCCCC" d="M405,327c0,7.7-6.3,14-14,14h-58c-7.7,0-14-6.3-14-14v-58c0-7.7,6.3-14,14-14h58c7.7,0,14,6.3,14,14V327z"
		/>
	<path fill="none" stroke="#000000" stroke-width="5" stroke-miterlimit="10" d="M405.5,326.5c0,7.7-6.3,14-14,14h-58
		c-7.7,0-14-6.3-14-14v-58c0-7.7,6.3-14,14-14h58c7.7,0,14,6.3,14,14V326.5z"/>
</g>
<g id="inven_x5F_slot_x5F_19">
	<path fill="#CCCCCC" d="M506,327c0,7.7-6.3,14-14,14h-58c-7.7,0-14-6.3-14-14v-58c0-7.7,6.3-14,14-14h58c7.7,0,14,6.3,14,14V327z"
		/>
	<path fill="none" stroke="#000000" stroke-width="5" stroke-miterlimit="10" d="M506.5,326.5c0,7.7-6.3,14-14,14h-58
		c-7.7,0-14-6.3-14-14v-58c0-7.7,6.3-14,14-14h58c7.7,0,14,6.3,14,14V326.5z"/>
</g>
<g id="inven_x5F_slot_x5F_20">
	<path fill="#CCCCCC" d="M606,326c0,7.7-6.3,14-14,14h-58c-7.7,0-14-6.3-14-14v-58c0-7.7,6.3-14,14-14h58c7.7,0,14,6.3,14,14V326z"
		/>
	<path fill="none" stroke="#000000" stroke-width="5" stroke-miterlimit="10" d="M606.5,325.5c0,7.7-6.3,14-14,14h-58
		c-7.7,0-14-6.3-14-14v-58c0-7.7,6.3-14,14-14h58c7.7,0,14,6.3,14,14V325.5z"/>
</g>
<g id="inven_x5F_slot_x5F_21">
	<path fill="#CCCCCC" d="M706,326c0,7.7-6.3,14-14,14h-58c-7.7,0-14-6.3-14-14v-58c0-7.7,6.3-14,14-14h58c7.7,0,14,6.3,14,14V326z"
		/>
	<path fill="none" stroke="#000000" stroke-width="5" stroke-miterlimit="10" d="M706.5,325.5c0,7.7-6.3,14-14,14h-58
		c-7.7,0-14-6.3-14-14v-58c0-7.7,6.3-14,14-14h58c7.7,0,14,6.3,14,14V325.5z"/>
</g>
<g id="inven_x5F_slot_x5F_22">
	<path fill="#CCCCCC" d="M101,428c0,7.7-6.3,14-14,14H29c-7.7,0-14-6.3-14-14v-58c0-7.7,6.3-14,14-14h58c7.7,0,14,6.3,14,14V428z"/>
	<path fill="none" stroke="#000000" stroke-width="5" stroke-miterlimit="10" d="M101.5,427.5c0,7.7-6.3,14-14,14h-58
		c-7.7,0-14-6.3-14-14v-58c0-7.7,6.3-14,14-14h58c7.7,0,14,6.3,14,14V427.5z"/>
</g>
<g id="inven_x5F_slot_x5F_23">
	<path fill="#CCCCCC" d="M203,428c0,7.7-6.3,14-14,14h-58c-7.7,0-14-6.3-14-14v-58c0-7.7,6.3-14,14-14h58c7.7,0,14,6.3,14,14V428z"
		/>
	<path fill="none" stroke="#000000" stroke-width="5" stroke-miterlimit="10" d="M203.5,427.5c0,7.7-6.3,14-14,14h-58
		c-7.7,0-14-6.3-14-14v-58c0-7.7,6.3-14,14-14h58c7.7,0,14,6.3,14,14V427.5z"/>
</g>
<g id="inven_x5F_slot_x5F_24">
	<path fill="#CCCCCC" d="M305,428c0,7.7-6.3,14-14,14h-58c-7.7,0-14-6.3-14-14v-58c0-7.7,6.3-14,14-14h58c7.7,0,14,6.3,14,14V428z"
		/>
	<path fill="none" stroke="#000000" stroke-width="5" stroke-miterlimit="10" d="M305.5,427.5c0,7.7-6.3,14-14,14h-58
		c-7.7,0-14-6.3-14-14v-58c0-7.7,6.3-14,14-14h58c7.7,0,14,6.3,14,14V427.5z"/>
</g>
<g id="inven_x5F_slot_x5F_25">
	<path fill="#CCCCCC" d="M406,429c0,7.7-6.3,14-14,14h-58c-7.7,0-14-6.3-14-14v-58c0-7.7,6.3-14,14-14h58c7.7,0,14,6.3,14,14V429z"
		/>
	<path fill="none" stroke="#000000" stroke-width="5" stroke-miterlimit="10" d="M406.5,428.5c0,7.7-6.3,14-14,14h-58
		c-7.7,0-14-6.3-14-14v-58c0-7.7,6.3-14,14-14h58c7.7,0,14,6.3,14,14V428.5z"/>
</g>
<g id="inven_x5F_slot_x5F_26">
	<path fill="#CCCCCC" d="M507,429c0,7.7-6.3,14-14,14h-58c-7.7,0-14-6.3-14-14v-58c0-7.7,6.3-14,14-14h58c7.7,0,14,6.3,14,14V429z"
		/>
	<path fill="none" stroke="#000000" stroke-width="5" stroke-miterlimit="10" d="M507.5,428.5c0,7.7-6.3,14-14,14h-58
		c-7.7,0-14-6.3-14-14v-58c0-7.7,6.3-14,14-14h58c7.7,0,14,6.3,14,14V428.5z"/>
</g>
<g id="inven_x5F_slot_x5F_27">
	<path fill="#CCCCCC" d="M607,428c0,7.7-6.3,14-14,14h-58c-7.7,0-14-6.3-14-14v-58c0-7.7,6.3-14,14-14h58c7.7,0,14,6.3,14,14V428z"
		/>
	<path fill="none" stroke="#000000" stroke-width="5" stroke-miterlimit="10" d="M607.5,427.5c0,7.7-6.3,14-14,14h-58
		c-7.7,0-14-6.3-14-14v-58c0-7.7,6.3-14,14-14h58c7.7,0,14,6.3,14,14V427.5z"/>
</g>
<g id="inven_x5F_slot_x5F_28">
	<path fill="#CCCCCC" d="M707,428c0,7.7-6.3,14-14,14h-58c-7.7,0-14-6.3-14-14v-58c0-7.7,6.3-14,14-14h58c7.7,0,14,6.3,14,14V428z"
		/>
	<path fill="none" stroke="#000000" stroke-width="5" stroke-miterlimit="10" d="M707.5,427.5c0,7.7-6.3,14-14,14h-58
		c-7.7,0-14-6.3-14-14v-58c0-7.7,6.3-14,14-14h58c7.7,0,14,6.3,14,14V427.5z"/>
</g>
<g id="inven_x5F_slot_x5F_29">
	<path fill="#CCCCCC" d="M102,532c0,7.7-6.3,14-14,14H30c-7.7,0-14-6.3-14-14v-58c0-7.7,6.3-14,14-14h58c7.7,0,14,6.3,14,14V532z"/>
	<path fill="none" stroke="#000000" stroke-width="5" stroke-miterlimit="10" d="M102.5,531.5c0,7.7-6.3,14-14,14h-58
		c-7.7,0-14-6.3-14-14v-58c0-7.7,6.3-14,14-14h58c7.7,0,14,6.3,14,14V531.5z"/>
</g>
<g id="inven_x5F_slot_x5F_30">
	<path fill="#CCCCCC" d="M204,532c0,7.7-6.3,14-14,14h-58c-7.7,0-14-6.3-14-14v-58c0-7.7,6.3-14,14-14h58c7.7,0,14,6.3,14,14V532z"
		/>
	<path fill="none" stroke="#000000" stroke-width="5" stroke-miterlimit="10" d="M204.5,531.5c0,7.7-6.3,14-14,14h-58
		c-7.7,0-14-6.3-14-14v-58c0-7.7,6.3-14,14-14h58c7.7,0,14,6.3,14,14V531.5z"/>
</g>
<g id="inven_x5F_slot_x5F_31">
	<path fill="#CCCCCC" d="M306,532c0,7.7-6.3,14-14,14h-58c-7.7,0-14-6.3-14-14v-58c0-7.7,6.3-14,14-14h58c7.7,0,14,6.3,14,14V532z"
		/>
	<path fill="none" stroke="#000000" stroke-width="5" stroke-miterlimit="10" d="M306.5,531.5c0,7.7-6.3,14-14,14h-58
		c-7.7,0-14-6.3-14-14v-58c0-7.7,6.3-14,14-14h58c7.7,0,14,6.3,14,14V531.5z"/>
</g>
<g id="inven_x5F_slot_x5F_32">
	<path fill="#CCCCCC" d="M407,533c0,7.7-6.3,14-14,14h-58c-7.7,0-14-6.3-14-14v-58c0-7.7,6.3-14,14-14h58c7.7,0,14,6.3,14,14V533z"
		/>
	<path fill="none" stroke="#000000" stroke-width="5" stroke-miterlimit="10" d="M407.5,532.5c0,7.7-6.3,14-14,14h-58
		c-7.7,0-14-6.3-14-14v-58c0-7.7,6.3-14,14-14h58c7.7,0,14,6.3,14,14V532.5z"/>
</g>
<g id="inven_x5F_slot_x5F_33">
	<path fill="#CCCCCC" d="M508,533c0,7.7-6.3,14-14,14h-58c-7.7,0-14-6.3-14-14v-58c0-7.7,6.3-14,14-14h58c7.7,0,14,6.3,14,14V533z"
		/>
	<path fill="none" stroke="#000000" stroke-width="5" stroke-miterlimit="10" d="M508.5,532.5c0,7.7-6.3,14-14,14h-58
		c-7.7,0-14-6.3-14-14v-58c0-7.7,6.3-14,14-14h58c7.7,0,14,6.3,14,14V532.5z"/>
</g>
<g id="inven_x5F_slot_x5F_34">
	<path fill="#CCCCCC" d="M608,532c0,7.7-6.3,14-14,14h-58c-7.7,0-14-6.3-14-14v-58c0-7.7,6.3-14,14-14h58c7.7,0,14,6.3,14,14V532z"
		/>
	<path fill="none" stroke="#000000" stroke-width="5" stroke-miterlimit="10" d="M608.5,531.5c0,7.7-6.3,14-14,14h-58
		c-7.7,0-14-6.3-14-14v-58c0-7.7,6.3-14,14-14h58c7.7,0,14,6.3,14,14V531.5z"/>
</g>
<g id="inven_x5F_slot_x5F_35">
	<path fill="#CCCCCC" d="M708,532c0,7.7-6.3,14-14,14h-58c-7.7,0-14-6.3-14-14v-58c0-7.7,6.3-14,14-14h58c7.7,0,14,6.3,14,14V532z"
		/>
	<path fill="none" stroke="#000000" stroke-width="5" stroke-miterlimit="10" d="M708.5,531.5c0,7.7-6.3,14-14,14h-58
		c-7.7,0-14-6.3-14-14v-58c0-7.7,6.3-14,14-14h58c7.7,0,14,6.3,14,14V531.5z"/>
</g>
<g id="inven_x5F_slot_x5F_36">
	<path fill="#CCCCCC" d="M102,638c0,7.7-6.3,14-14,14H30c-7.7,0-14-6.3-14-14v-58c0-7.7,6.3-14,14-14h58c7.7,0,14,6.3,14,14V638z"/>
	<path fill="none" stroke="#000000" stroke-width="5" stroke-miterlimit="10" d="M102.5,637.5c0,7.7-6.3,14-14,14h-58
		c-7.7,0-14-6.3-14-14v-58c0-7.7,6.3-14,14-14h58c7.7,0,14,6.3,14,14V637.5z"/>
</g>
<g id="inven_x5F_slot_x5F_37">
	<path fill="#CCCCCC" d="M204,638c0,7.7-6.3,14-14,14h-58c-7.7,0-14-6.3-14-14v-58c0-7.7,6.3-14,14-14h58c7.7,0,14,6.3,14,14V638z"
		/>
	<path fill="none" stroke="#000000" stroke-width="5" stroke-miterlimit="10" d="M204.5,637.5c0,7.7-6.3,14-14,14h-58
		c-7.7,0-14-6.3-14-14v-58c0-7.7,6.3-14,14-14h58c7.7,0,14,6.3,14,14V637.5z"/>
</g>
<g id="inven_x5F_slot_x5F_38">
	<path fill="#CCCCCC" d="M306,638c0,7.7-6.3,14-14,14h-58c-7.7,0-14-6.3-14-14v-58c0-7.7,6.3-14,14-14h58c7.7,0,14,6.3,14,14V638z"
		/>
	<path fill="none" stroke="#000000" stroke-width="5" stroke-miterlimit="10" d="M306.5,637.5c0,7.7-6.3,14-14,14h-58
		c-7.7,0-14-6.3-14-14v-58c0-7.7,6.3-14,14-14h58c7.7,0,14,6.3,14,14V637.5z"/>
</g>
<g id="inven_x5F_slot_x5F_39">
	<path fill="#CCCCCC" d="M407,639c0,7.7-6.3,14-14,14h-58c-7.7,0-14-6.3-14-14v-58c0-7.7,6.3-14,14-14h58c7.7,0,14,6.3,14,14V639z"
		/>
	<path fill="none" stroke="#000000" stroke-width="5" stroke-miterlimit="10" d="M407.5,638.5c0,7.7-6.3,14-14,14h-58
		c-7.7,0-14-6.3-14-14v-58c0-7.7,6.3-14,14-14h58c7.7,0,14,6.3,14,14V638.5z"/>
</g>
<g id="inven_x5F_slot_x5F_40">
	<path fill="#CCCCCC" d="M508,639c0,7.7-6.3,14-14,14h-58c-7.7,0-14-6.3-14-14v-58c0-7.7,6.3-14,14-14h58c7.7,0,14,6.3,14,14V639z"
		/>
	<path fill="none" stroke="#000000" stroke-width="5" stroke-miterlimit="10" d="M508.5,638.5c0,7.7-6.3,14-14,14h-58
		c-7.7,0-14-6.3-14-14v-58c0-7.7,6.3-14,14-14h58c7.7,0,14,6.3,14,14V638.5z"/>
</g>
<g id="inven_x5F_slot_x5F_41">
	<path fill="#CCCCCC" d="M608,638c0,7.7-6.3,14-14,14h-58c-7.7,0-14-6.3-14-14v-58c0-7.7,6.3-14,14-14h58c7.7,0,14,6.3,14,14V638z"
		/>
	<path fill="none" stroke="#000000" stroke-width="5" stroke-miterlimit="10" d="M608.5,637.5c0,7.7-6.3,14-14,14h-58
		c-7.7,0-14-6.3-14-14v-58c0-7.7,6.3-14,14-14h58c7.7,0,14,6.3,14,14V637.5z"/>
</g>
<g id="inven_x5F_slot_x5F_42">
	<path fill="#CCCCCC" d="M708,638c0,7.7-6.3,14-14,14h-58c-7.7,0-14-6.3-14-14v-58c0-7.7,6.3-14,14-14h58c7.7,0,14,6.3,14,14V638z"
		/>
	<path fill="none" stroke="#000000" stroke-width="5" stroke-miterlimit="10" d="M708.5,637.5c0,7.7-6.3,14-14,14h-58
		c-7.7,0-14-6.3-14-14v-58c0-7.7,6.3-14,14-14h58c7.7,0,14,6.3,14,14V637.5z"/>
</g>
<path fill="none" stroke="#8C6239" stroke-width="6" stroke-miterlimit="10" d="M921,182v192 M970,374h-99 M880,372v223 M962,372
	v223 M971,598h-99 M1050,205H792 M1050,202v192 M792,202v192 M872,718v37 M971,718v37 M872,595v140 M971,595v140 M971,699h-99"/>
<g id="head_x5F_slot">
	<path fill="#CCCCCC" d="M965,167c0,7.7-6.3,14-14,14h-58c-7.7,0-14-6.3-14-14v-58c0-7.7,6.3-14,14-14h58c7.7,0,14,6.3,14,14V167z"
		/>
	<path fill="none" stroke="#000000" stroke-width="5" stroke-miterlimit="10" d="M965.5,166.5c0,7.7-6.3,14-14,14h-58
		c-7.7,0-14-6.3-14-14v-58c0-7.7,6.3-14,14-14h58c7.7,0,14,6.3,14,14V166.5z"/>
</g>
<g id="legs_x5F_slot">
	<path fill="#CCCCCC" d="M922,507c0,7.7-6.3,14-14,14h-58c-7.7,0-14-6.3-14-14v-58c0-7.7,6.3-14,14-14h58c7.7,0,14,6.3,14,14V507z"
		/>
	<path fill="none" stroke="#000000" stroke-width="5" stroke-miterlimit="10" d="M922.5,506.5c0,7.7-6.3,14-14,14h-58
		c-7.7,0-14-6.3-14-14v-58c0-7.7,6.3-14,14-14h58c7.7,0,14,6.3,14,14V506.5z"/>
</g>
<g id="chest_x5F_slot">
	<path fill="#CCCCCC" d="M965,317c0,7.7-6.3,14-14,14h-58c-7.7,0-14-6.3-14-14v-58c0-7.7,6.3-14,14-14h58c7.7,0,14,6.3,14,14V317z"
		/>
	<path fill="none" stroke="#000000" stroke-width="5" stroke-miterlimit="10" d="M965.5,316.5c0,7.7-6.3,14-14,14h-58
		c-7.7,0-14-6.3-14-14v-58c0-7.7,6.3-14,14-14h58c7.7,0,14,6.3,14,14V316.5z"/>
</g>
<g id="weapon_x5F_slot">
	<path fill="#CCCCCC" d="M1093,421c0,7.7-6.3,14-14,14h-58c-7.7,0-14-6.3-14-14v-58c0-7.7,6.3-14,14-14h58c7.7,0,14,6.3,14,14V421z"
		/>
	<path fill="none" stroke="#000000" stroke-width="5" stroke-miterlimit="10" d="M1093.5,420.5c0,7.7-6.3,14-14,14h-58
		c-7.7,0-14-6.3-14-14v-58c0-7.7,6.3-14,14-14h58c7.7,0,14,6.3,14,14V420.5z"/>
</g>
<g>
</g>
<g>
</g>
<g>
</g>
<g>
</g>
<g>
</g>
<g>
</g>
<g>
</g>
<g>
</g>
<g>
</g>
<g>
</g>
<g>
</g>
<g>
</g>
<g>
</g>
<g>
</g>
<g>
</g>
</svg>
